<svg xmlns="http://www.w3.org/2000/svg" version="1" viewBox="0 0 50 50"><path fill="#FCC34F" d="M12.385 43.172L46.349 30.81c.503-1.852.776-3.799.776-5.81 0-12.219-9.906-22.125-22.125-22.125S2.875 12.781 2.875 25c0 7.529 3.764 14.176 9.51 18.172z"/><path fill="#FDCF72" d="M37.125 6.443a22.02 22.02 0 00-12.041-3.568c-9.967 0-18.392 6.591-21.16 15.652L37.125 6.443z"/><path fill="#031326" d="M25 48.375C12.111 48.375 1.625 37.889 1.625 25S12.111 1.625 25 1.625 48.375 12.111 48.375 25c0 2.08-.273 4.145-.814 6.137a1.248 1.248 0 11-2.412-.654c.482-1.779.727-3.624.727-5.483 0-11.511-9.364-20.875-20.875-20.875S4.125 13.489 4.125 25 13.489 45.875 25 45.875a1.25 1.25 0 010 2.5z"/><path fill="#031326" d="M25 42.365c-9.575 0-17.365-7.79-17.365-17.365S15.425 7.636 25 7.636c9.574 0 17.364 7.79 17.364 17.364S34.574 42.365 25 42.365zm0-34.479C15.563 7.886 7.885 15.563 7.885 25S15.563 42.115 25 42.115c9.437 0 17.114-7.678 17.114-17.115S34.437 7.886 25 7.886z"/><circle cx="25" cy="17.188" r="2.35" fill="#031326"/><path fill="#031326" d="M31.817 19.554c-.03.006-3.059.547-5.935.547h-1.765c-2.874 0-5.904-.541-5.934-.547a.882.882 0 10-.314 1.736c.117.021 2.614.467 5.321.558l-.359 5.721c-.454 3.22-1.645 6.36-1.658 6.395a.883.883 0 00.823 1.199.88.88 0 00.823-.566c.05-.131.919-2.371 1.469-5.218a.727.727 0 01.71-.594c.349 0 .644.251.71.594.55 2.846 1.419 5.086 1.469 5.218a.881.881 0 101.646-.633c-.013-.034-1.204-3.169-1.658-6.393l-.36-5.723a41.37 41.37 0 005.321-.558.882.882 0 00.711-1.025.875.875 0 00-1.02-.711zm-17.369 8.841c-.282 0-.563-.115-.767-.343l-1.995-2.231a1.233 1.233 0 010-1.641l1.996-2.232a1.027 1.027 0 111.533 1.369L13.709 25l1.504 1.683a1.027 1.027 0 01-.765 1.712zm21.105 0a1.026 1.026 0 01-.766-1.712L36.291 25l-1.504-1.683a1.027 1.027 0 111.531-1.369l1.995 2.232c.419.465.42 1.172.001 1.641l-1.996 2.231a1.018 1.018 0 01-.765.343zm1.228-2.847l.002.003-.002-.003z"/></svg>