<svg xmlns="http://www.w3.org/2000/svg" id="Camada_1" x="0" y="0" version="1.1" viewBox="0 0 50 50" xml:space="preserve"><style>.st2{fill:#444}</style><path fill="#fcc34f" d="M48.4 22L5.2 37.7C2.8 34 1.4 29.7 1.4 25c0-1 .1-1.9.2-2.8 0-.2.1-.5.1-.7L40.6 7.3c.2.2.4.3.5.5 3.9 3.7 6.6 8.6 7.3 14.2z"/><path fill="#fdcf72" d="M41.1 7.8L1.6 22.2c0-.2.1-.5.1-.7 1.7-11.3 11.5-20 23.3-20 6 0 11.4 2.2 15.6 5.9.1.1.3.2.5.4z"/><path d="M25 49.8c-8.5 0-16.3-4.3-20.9-11.5-2.6-4.1-4-8.6-4-13.4 0-1.1.1-2 .2-2.9 0-.2 0-.3.1-.5v-.2C2.3 9.3 12.8.2 25 .2c6.1 0 11.8 2.1 16.4 6.2l.2.2.5.5C46.3 11 49 16.3 49.7 22c.1.9.2 2 .2 3.1-.1 13.6-11.2 24.7-24.9 24.7zM2.9 21.6c0 .1 0 .3-.1.5v.1c-.1 1-.2 1.8-.2 2.8 0 4.3 1.2 8.3 3.6 12 4.1 6.5 11.1 10.3 18.8 10.3 12.3 0 22.3-10 22.3-22.3 0-1-.1-1.9-.2-2.8-.6-5.1-3.1-9.9-6.9-13.4l-.2-.2-.3-.3C35.6 4.7 30.5 2.8 25 2.8c-10.9 0-20.4 8.1-22.1 18.8z" class="st2"/><path d="M25 45.2C13.9 45.2 4.8 36.1 4.8 25S13.9 4.8 25 4.8 45.2 13.9 45.2 25 36.1 45.2 25 45.2zm0-39.6C14.3 5.6 5.6 14.3 5.6 25S14.3 44.4 25 44.4 44.4 35.7 44.4 25 35.7 5.6 25 5.6z" class="st2"/><path d="M18.2 28.1c0 2-.9 2.2-1.7 2.2-.4 0-.9-.1-1.5-.2l-.5-.1v3.1l.3.1c.5.2 1.2.3 1.9.3 1.6 0 2.9-.5 3.7-1.4.8-.9 1.3-2.3 1.3-4V16.2h-3.5v11.9zm16.4-1.7c-.3-.6-.7-1.1-1.3-1.6s-1.5-.9-2.7-1.4c-1-.4-1.7-.7-2.1-1-.3-.2-.6-.5-.7-.7s-.2-.5-.2-.8c0-.5.2-.8.5-1.1.3-.3.9-.4 1.6-.4 1 0 2.3.3 3.6.9l.4.2 1.2-3-.4-.2c-1.6-.7-3.2-1-4.7-1-1.7 0-3.1.4-4.1 1.2-1.1.9-1.6 2-1.6 3.5 0 1.2.3 2.2 1 3s1.7 1.5 3.3 2.2c1.7.7 2.4 1.1 2.6 1.4.4.3.5.7.5 1.2s-.2.9-.6 1.2c-.7.6-2.3.6-4.2.2-.8-.2-1.5-.4-2.2-.8l-.6-.4v3.5l.3.1c1.2.6 2.8.9 4.6.9 1.9 0 3.4-.4 4.5-1.3s1.7-2.1 1.7-3.7c0-.8-.1-1.5-.4-2.1z" class="st2"/></svg>