<svg xmlns="http://www.w3.org/2000/svg" id="Layer_1" x="0" y="0" version="1.1" viewBox="0 0 50 50" xml:space="preserve"><style>.st3{fill:#031326}</style><path fill="#4ecdc4" d="M46.1 11.3H20.9c-.1-.9-.8-1.6-1.6-1.6h-16c-.9 0-1.7.8-1.7 1.8v17.2L46 12.6l.1-1.3z"/><path fill="#46b8b0" d="M47.9 17.4c.1-.5 0-.9-.3-1.2h.3l.5-3.3H46v-.4L1.6 28.7v8.9c0 .6.3 1.2.8 1.5.2.2.5.3.9.3h14.9l27.4-10 2.3-12z"/><path d="M49.1 16c-.2-.2-.4-.4-.7-.6l.5-2.7h-2.5l.2-1.7h-25c-.3-1-1.2-1.7-2.3-1.7H3C1.7 9.3.6 10.5.6 11.9v25.7l-.2.9c-.2.8 0 1.6.5 2.2.5.6 1.2.9 2.1.9h37c.7 0 1.2-.6 1.2-1.2S40.7 39 40 39H3c-.1 0-.1 0-.1-.1l.4-2.1 4.2-21.5c.1-.3.4-.6.8-.6h16.3c.1 0 .1 0 .1.1-.1.4-.2 1.3.3 1.9.6.7 1.5.8 2.3.8h19.9c.1 0 .1 0 .1.1L45 29.1c-.1.7.3 1.3 1 1.5h.2c.6 0 1.1-.4 1.2-1l2.2-11.5c.2-.8 0-1.6-.5-2.1zm-3-4.5l-.1 1.2H26.1c-.1-.1-.2-.2-.3-.2-.4-.2-.8-.3-1.3-.3h-2.8v-.7h24.4zm-44 .4c0-.6.4-1.1.9-1.1h16.3c.5 0 .9.5.9 1.1v.3h-12c-.6 0-1.2.2-1.7.5H4.3l-1.1 11L2 29.8V11.9zM5 14.8l-.7 3.7.5-5.3h1.1c-.5.5-.8 1-.9 1.6zm42.1.2h-20c.1-.7-.1-1.3-.5-1.8h21.8l-.4 2c-.3-.1-.6-.2-.9-.2z" class="st3"/><path d="M19.2 31.9c-2 0-3-1.1-3-3.3 0-1.1.3-1.9.8-2.5.5-.6 1.3-.9 2.4-.9.8 0 1.4.1 2 .4l-.5 1.4c-.3-.1-.5-.2-.8-.3-.2-.1-.5-.1-.7-.1-.9 0-1.4.7-1.4 2s.5 1.9 1.4 1.9c.3 0 .7 0 .9-.1.3-.1.6-.2.9-.4v1.5c-.3.2-.6.3-.9.4-.3-.1-.7 0-1.1 0zm8-2.1c0 .7-.2 1.2-.7 1.5s-1.2.5-2.1.5c-.5 0-.9 0-1.2-.1l-.9-.3V30c.3.2.7.3 1.1.4s.8.2 1.1.2c.6 0 1-.2 1-.6 0-.1 0-.3-.1-.3s-.2-.2-.4-.3-.6-.3-1-.4c-.5-.2-.9-.4-1.1-.6-.2-.2-.4-.4-.5-.6s-.2-.5-.2-.9c0-.6.2-1 .7-1.3.4-.3 1.1-.5 1.9-.5.8 0 1.5.2 2.3.5l-.5 1.3c-.3-.1-.6-.3-.9-.3-.3-.1-.6-.1-.9-.1-.5 0-.8.1-.8.4 0 .2.1.3.3.4.2.1.5.3 1.1.5.5.2.9.4 1.1.6.2.2.4.4.5.6.1.2.2.5.2.8zm5.9 0c0 .7-.2 1.2-.7 1.5-.5.3-1.2.5-2.1.5-.5 0-.9 0-1.2-.1l-.9-.3V30c.3.2.7.3 1.1.4s.8.2 1.1.2c.6 0 1-.2 1-.6 0-.1 0-.3-.1-.3-.1-.1-.2-.2-.4-.3s-.6-.3-.9-.4c-.5-.2-.9-.4-1.1-.6-.2-.2-.4-.4-.5-.6-.1-.2-.2-.5-.2-.9 0-.6.2-1 .7-1.3.4-.3 1.1-.5 1.9-.5.8 0 1.5.2 2.3.5l-.5 1.3c-.3-.1-.6-.3-.9-.3-.3-.1-.6-.1-.9-.1-.5 0-.8.1-.8.4 0 .2.1.3.3.4s.5.3 1.1.5c.5.2.9.4 1.1.6.2.2.4.4.5.6.1.2.1.5.1.8z" class="st3"/></svg>