<svg xmlns="http://www.w3.org/2000/svg" id="Layer_1" x="0" y="0" version="1.1" viewBox="0 0 50 50" xml:space="preserve"><style>.st2{fill:#031326}</style><path fill="#75b6ae" d="M42.7 31.8l1.1-.4V19.8L6.3 33.5v9h7.2l29.2-10.7"/><path fill="#81cbc2" d="M43.6 7.4L7 20.7v13.8l36.6-13.3z"/><path d="M48.4 24.1c.7 0 1.2-.6 1.2-1.2s-.6-1.2-1.2-1.2h-3.9v-2.5h3.9c.7 0 1.2-.6 1.2-1.2s-.6-1.2-1.2-1.2h-3.9V5.7H33.7V1.5c0-.7-.6-1.2-1.2-1.2s-1.2.6-1.2 1.2v4.3h-2.5V1.5c0-.7-.6-1.2-1.2-1.2s-1.2.6-1.2 1.2v4.3h-2.5V1.5c0-.7-.6-1.2-1.2-1.2s-1.2.6-1.2 1.2v4.3H19V1.5c0-.7-.6-1.2-1.2-1.2s-1.2.6-1.2 1.2v4.3H5.5v10.8H1.6c-.7 0-1.2.6-1.2 1.2S1 19 1.6 19h3.9v2.5H1.6c-.7 0-1.2.6-1.2 1.2s.6 1.2 1.2 1.2h3.9v2.5H1.6c-.7 0-1.2.6-1.2 1.2s.6 1.2 1.2 1.2h3.9v2.5H1.6c-.7 0-1.2.6-1.2 1.2s.6 1.2 1.2 1.2h3.9v10.7h10.7v3.8c0 .7.6 1.2 1.2 1.2s1.2-.6 1.2-1.2v-3.8h2.5v3.8c0 .7.6 1.2 1.2 1.2s1.2-.6 1.2-1.2v-3.8H26v3.8c0 .7.6 1.2 1.2 1.2s1.2-.6 1.2-1.2v-3.8h2.5v3.8c0 .7.6 1.2 1.2 1.2s1.2-.6 1.2-1.2v-3.8h10.9V34.1h3.9c.7 0 1.2-.6 1.2-1.2s-.6-1.2-1.2-1.2h-3.9v-2.5h3.9c.7 0 1.2-.6 1.2-1.2s-.6-1.2-1.2-1.2h-3.9v-2.5h4.2zm-6.3 18.2H8V8.2h34.1v34.1z" class="st2"/><path d="M35.3 39.3H14.8c-2.1 0-3.8-1.7-3.8-3.8V15c0-2.1 1.7-3.8 3.8-3.8h20.5c2.1 0 3.8 1.7 3.8 3.8v20.5c-.1 2.1-1.7 3.8-3.8 3.8zM14.8 12.8c-1.3 0-2.3 1-2.3 2.3v20.5c0 1.3 1 2.3 2.3 2.3h20.5c1.3 0 2.3-1 2.3-2.3V15c0-1.3-1-2.3-2.3-2.3H14.8z" class="st2"/><path d="M24.8 28.8s-.1 0-.2-.1h-.2c-.1 0-.2-.1-.3-.1-.1 0-.2-.1-.2-.2-.1-.1-.2-.3-.2-.4 0-.2 0-.3.1-.5 0-.1.1-.2.1-.2.1-.2.1-.3.2-.3 0 0 .1-.1.2-.1.1-.1.2-.1.2-.1s.1-.1.1-.2v-.2l-.1-.1s0-.1-.1-.1c0 0 0-.1-.1-.1 0-.1-.1-.1-.1-.2v-.1c0-.1-.1-.1-.2-.1h-.2s-.1 0-.2.1c-.1 0-.2.1-.2.1-.1.1-.1.1-.2.1h-.3c-.2 0-.3 0-.5-.1-.1-.1-.3-.2-.3-.4 0-.1-.1-.2-.1-.3v-.7c0-.1 0-.1-.1-.2 0-.1-.1-.1-.2-.1h-.8c-.1 0-.1.1-.1.1s0 .1-.1.2v.2c0 .1-.1.2-.1.3 0 .1-.1.2-.2.2-.1.1-.3.2-.4.2-.2 0-.3 0-.5-.1-.1 0-.2-.1-.2-.1l-.2-.2s-.1-.1-.1-.2c-.1-.1-.1-.2-.1-.2s-.1-.1-.2-.1h-.2l-.1.1s-.1 0-.1.1c0 0-.1 0-.1.1-.1.2-.1.2-.2.2h-.1c-.1 0-.1.1-.1.2v.2s0 .1.1.2c0 .1.1.2.1.2.1.1.1.2.1.3v.3c0 .2 0 .3-.1.5-.1.1-.2.3-.4.3-.1 0-.2.1-.3.1h-.7c-.1 0-.1 0-.2.1-.1 0-.1.1-.1.2v.8c0 .1.1.1.1.1s.1 0 .2.1h.2c.1 0 .2.1.3.1.1 0 .2.1.2.2.1.1.2.3.2.4 0 .2 0 .3-.1.5 0 .1-.1.2-.1.2l-.2.2s-.1.1-.2.1c-.1.1-.2.1-.2.1s-.1.1-.1.2v.2l.1.1s0 .1.1.1c0 0 0 .1.1.1 0 .1.1.1.1.2v.1c0 .1.1.1.2.1h.2s.1 0 .2-.1c.1 0 .2-.1.2-.1.1-.1.2-.1.3-.1h.3c.2 0 .3 0 .5.1.1.1.3.2.3.4 0 .1.1.2.1.3v.7c0 .1 0 .1.1.2 0 .1.1.1.2.1h.8c.1 0 .1-.1.1-.1s0-.1.1-.2v-.2c0-.1.1-.2.1-.3 0-.1.1-.2.2-.2.1-.1.3-.2.4-.2.2 0 .3 0 .5.1.1 0 .2.1.2.1l.2.2s.1.1.1.2c.1.1.1.2.1.2s.1.1.2.1h.2l.1-.1s.1 0 .1-.1c0 0 .1 0 .1-.1.1 0 .1-.1.2-.1h.1c.1 0 .1-.1.1-.2v-.2s0-.1-.1-.2c0-.1-.1-.2-.1-.2-.1-.1-.1-.2-.1-.3v-.3c0-.2 0-.3.1-.5.1-.1.2-.3.4-.3.1 0 .2-.1.3-.1h.7c.1 0 .1 0 .2-.1.1 0 .1-.1.1-.2v-.8c0-.1-.1-.1-.2-.1zm-2.1-.2v.3c0 .1 0 .2-.1.3 0 .1-.1.2-.1.2v.2c0 .1-.1.1-.2.2l-.2.2c-.1.1-.2.1-.3.1 0 0-.1 0-.1.1h-1.2c-.1 0-.2 0-.3-.1-.1 0-.2-.1-.2-.1h-.2c-.1 0-.1-.1-.2-.2l-.2-.2c-.1-.1-.1-.2-.1-.3 0 0 0-.1-.1-.1V28c0-.1 0-.2.1-.3 0-.1.1-.2.1-.2v-.2c0-.1.1-.1.2-.2l.2-.2c.1-.1.2-.1.3-.1 0 0 .1 0 .1-.1h1.2c.1 0 .2 0 .3.1.1 0 .2.1.2.1h.2c.1 0 .1.1.2.2l.2.2c.1.1.1.2.1.3 0 0 0 .1.1.1v.9z" class="st2"/><path d="M33.6 24.2s-.1 0-.2-.1c-.1 0-.2-.1-.2-.1-.1 0-.2-.1-.2-.2l-.1-.1-.1-.1c-.1-.2-.2-.3-.2-.5s.1-.4.2-.5l.1-.1.1-.1c.1-.1.2-.1.2-.2 0 0 .1 0 .2-.1.1 0 .2-.1.2-.1.1 0 .1-.1.1-.1v-.6c0-.1-.1-.2-.1-.2V21c-.1-.1-.2-.2-.3-.2h-1c-.1 0-.2-.1-.2-.1l-.1-.1-.1-.1-.1-.1s0-.1-.1-.1v-.5c0-.1.1-.2.1-.3 0 0 .1-.1.1-.2s.1-.2.1-.2v-.2c0-.1-.1-.1-.1-.2l-.1-.1s-.1-.1-.2-.1-.1-.1-.2-.1-.1-.1-.1-.1c-.1-.1-.3-.1-.4 0l-.1.1-.1.1-.2.2c-.1 0-.2.1-.3.1h-.5s-.1 0-.1-.1c0 0-.1 0-.1-.1l-.1-.1-.1-.1c-.1-.1-.1-.2-.1-.2 0-.1-.1-.2-.1-.3v-.4c0-.1 0-.1-.1-.2 0 0-.1-.1-.2-.1h-.6c-.1 0-.1 0-.2.1 0 0-.1.1-.1.2v.4c0 .1 0 .2-.1.3 0 .1-.1.2-.1.2l-.1.1-.1.1-.1.1s-.1 0-.1.1h-.5c-.1 0-.2-.1-.3-.1-.1 0-.2-.1-.2-.2l-.1-.1-.1-.1c-.1-.1-.2-.1-.4 0l-.1.1c-.1 0-.1.1-.2.1s-.1.1-.2.1l-.1.1c-.1 0-.1.1-.1.2v.2s0 .1.1.2c0 .1.1.2.1.2.1.1.1.2.1.3v.5s0 .1-.1.1c0 0 0 .1-.1.1l-.1.1-.1.1c-.1.1-.2.1-.2.1h-1c-.1 0-.2.1-.3.2v.1c0 .1 0 .1-.1.2v.6c0 .1.1.1.1.1s.1 0 .2.1c.1 0 .2.1.2.1.1 0 .2.1.2.2l.1.1.1.1c.1.2.2.3.2.5s-.1.4-.2.5l-.1.1-.1.1c-.1.1-.2.1-.2.2 0 0-.1 0-.2.1-.1 0-.2.1-.2.1-.1 0-.1.1-.1.1v.6c0 .1.1.2.1.2v.1c.1.1.2.2.3.2h1c.1 0 .2.1.2.1l.1.1.1.1.1.1s0 .1.1.1v.5c0 .1-.1.2-.1.3 0 0-.1.1-.1.2s-.1.2-.1.2v.2c0 .1.1.1.1.2l.1.1s.1.1.2.1.1.1.2.1.1.1.1.1c.1.1.3.1.4 0l.1-.1.1-.1.2-.2c.1 0 .2-.1.3-.1h.5s.1 0 .1.1c0 0 .1 0 .1.1l.1.1.1.1c.1.1.1.2.1.2 0 .1.1.2.1.3v.4c0 .1 0 .1.1.2 0 0 .1.1.2.1h.6c.1 0 .1 0 .2-.1 0 0 .1-.1.1-.2v-.4c0-.1 0-.2.1-.3 0-.1.1-.2.1-.2l.1-.1.1-.1.1-.1s.1 0 .1-.1h.5c.1 0 .2.1.3.1.1 0 .2.1.2.2l.1.1.1.1c.1.1.2.1.4 0l.1-.1c.1 0 .1-.1.2-.1s.1-.1.2-.1l.1-.1c.1 0 .1-.1.1-.2v-.2s0-.1-.1-.2c0-.1-.1-.2-.1-.2-.1-.1-.1-.2-.1-.3v-.5s0-.1.1-.1c0 0 0-.1.1-.1l.1-.1.1-.1c.1-.1.2-.1.2-.1h1c.1 0 .2-.1.3-.2v-.1c0-.1 0-.1.1-.2v-.6s0-.1-.1-.1zm-2.3-1c0 .1 0 .1 0 0 0 .1 0 .1 0 0v.8l-.3.6s0 .1-.1.1v.2l-.1.1s0 .1-.1.1c-.1.1-.3.3-.5.4-.2.1-.4.2-.5.3h-.6c-.2 0-.4.1-.6.1-.2 0-.5 0-.6-.1h-.6c-.2-.1-.4-.2-.5-.3-.2-.1-.4-.3-.5-.4l-.1-.1s0-.1-.1-.1 0 0 0-.1l-.1-.1s0-.1-.1-.1c-.1-.1-.2-.4-.3-.6v-1.6l.3-.6s0-.1.1-.1c0 0 0-.1.1-.1v-.1l.1-.1s0-.1.1-.1c.1-.1.3-.3.5-.4.2-.1.4-.2.5-.3h.6c.2 0 .4-.1.6-.1.2 0 .5 0 .6.1h.6c.2.1.4.2.5.3.2.1.4.3.5.4l.1.1s0 .1.1.1 0 0 0 .1v.1s0 .1.1.1c.1.1.2.4.3.6v.8z" class="st2"/></svg>