<svg xmlns="http://www.w3.org/2000/svg" id="Camada_3" x="0" y="0" version="1.1" viewBox="0 0 50 50" xml:space="preserve"><style>.st2{stroke-width:.25}.st2,.st3{fill:none;stroke:#444;stroke-linecap:round;stroke-linejoin:round;stroke-miterlimit:10}</style><path fill="#ab92c4" d="M40.45 7.3l-32.72.65L4.7 23.3 42.53 9.84z"/><path fill="#8874b2" d="M1.34 25.45l4.81 6.07c0 .72.19 8.88.86 8.64L9.2 43.7l35.43-12.61c.41-.15 2.55-3.27 3.34-4.75.21-.4.13-.88-.18-1.2l-2.76-2.82c0-.06-.01-.12-.02-.18-.17-1.54-1.42-12.68-2.47-12.3L5.39 23.05c-.41.15-4.05 1.97-4.05 2.4z"/><path d="M15.64 12.06l1.77-4.76m7.68 4.76V7.3" class="st2"/><path d="M15.64 14.16c0 2.61-2.12 4.73-4.73 4.73-2.61 0-4.73-2.12-4.73-4.73v-2.11H44" class="st3"/><path d="M15.64 14.16c0 2.61 2.12 4.73 4.73 4.73 2.61 0 4.73-2.12 4.73-4.73" class="st3"/><path d="M34.55 12.06L32.77 7.3" class="st2"/><path d="M34.55 14.16c0 2.61 2.12 4.73 4.73 4.73 2.61 0 4.73-2.12 4.73-4.73v-2.11L40.05 7.3H10.13l-3.94 4.76" class="st3"/><path d="M25.09 14.16c0 2.61 2.12 4.73 4.73 4.73 2.61 0 4.73-2.12 4.73-4.73m-8.96 20.02l-3.37 4.28C18.5 42.92 14.76 44.93 8.41 44l-1.39-3.82" class="st3"/><path d="M28.62 35.81l4 3.76.25-13.51-12.74 6.08 5.46 2.04" class="st3"/><path d="M30.48 23.19l-.43-1.93m6.56 5.82l1.8-.4m-3.71-3.16l1.05-1.66" class="st2"/><path d="M28.62 35.81l-4.59 6.53" class="st3"/><path fill="none" stroke="#444" stroke-linecap="round" stroke-miterlimit="10" stroke-width="2.5" d="M37.51 44.85H11.32c-2.69 0-4.68-2.35-4.59-4.91.09-2.45-.03-5.63-.83-8.22-.8-2.6-2.16-4.24-4.37-4.45v-2.39c2.22-.21 3.57-1.85 4.37-4.45.8-2.59.91-5.77.83-8.22-.09-2.55 1.9-4.91 4.59-4.91h27.55c2.69 0 4.68 2.35 4.59 4.91-.09 2.45.03 5.63.83 8.22.8 2.6 2.15 4.24 4.37 4.45v2.39c-2.22.21-3.57 1.85-4.37 4.45-.36 1.17-.58 2.46-.71 3.74"/></svg>