<svg xmlns="http://www.w3.org/2000/svg" version="1" viewBox="0 0 50 50"><path fill="#FCC34F" d="M4.818 45.536l42.145-15.339V8.454a5.417 5.417 0 00-5.417-5.417H8.454a5.417 5.417 0 00-5.417 5.417v33.091c0 1.587.694 3 1.781 3.991z"/><path fill="#FDCF72" d="M45.18 4.463a5.378 5.378 0 00-3.635-1.425H8.454a5.417 5.417 0 00-5.417 5.417v11.347L45.18 4.463z"/><path fill="#031326" d="M25.001 48.137H8.454a6.599 6.599 0 01-6.591-6.591V8.455a6.599 6.599 0 016.591-6.592h33.091a6.599 6.599 0 016.591 6.592v21.739a1.175 1.175 0 11-2.35 0V8.455a4.247 4.247 0 00-4.242-4.242H8.454a4.247 4.247 0 00-4.242 4.242v33.091a4.247 4.247 0 004.242 4.242h16.547a1.175 1.175 0 110 2.349z"/><path fill="#031326" d="M16.395 40.118v-6.834a.263.263 0 00-.263-.263H9.596a.263.263 0 00-.263.263v6.834c0 .145.118.263.263.263h6.536a.262.262 0 00.263-.263zm22.761-25.44l-6.775 2.33a.263.263 0 01-.349-.249V9.882a.263.263 0 00-.263-.263h-3.396a.263.263 0 00-.263.263v6.946c0 .182-.181.31-.353.248l-6.695-2.42a.263.263 0 00-.337.158l-1.169 3.241a.263.263 0 00.167.34l6.829 2.199a.263.263 0 01.132.406l-4.258 5.852a.262.262 0 00.063.371l3.007 2.089c.12.084.286.053.368-.069l4.103-6.069a.263.263 0 01.437.001l4.038 6.062a.263.263 0 00.372.068l2.909-2.083a.264.264 0 00.061-.367l-4.193-5.848a.263.263 0 01.133-.404l6.76-2.199a.263.263 0 00.166-.34l-1.162-3.227a.26.26 0 00-.332-.159z"/></svg>