<svg xmlns="http://www.w3.org/2000/svg" version="1" viewBox="0 0 50 50"><path fill="#FCC34F" d="M3.026 23.674c.401 1.497 3.081 3.569 3.081 3.569a21.657 21.657 0 009.968 12.611 21.751 21.751 0 005.989 2.362l22.271-8.106a21.807 21.807 0 001.475-2.22 21.867 21.867 0 002.297-5.707.604.604 0 00-.669-.751c-1.887.282-6.518.633-10.765-1.742-2.142-1.198-5.129-4.79-5.129-4.79s.328-2.027.096-2.893l-.986-3.679c-1.195-4.461-8.568-6.354-16.469-4.237S.844 15.534 2.04 19.995l.986 3.679z"/><path fill="#FDCF72" d="M27.52 8.756c-3.127-1.706-8.136-2.069-13.381-.664C7.34 9.914 2.368 14.112 1.875 18.09L27.52 8.756z"/><g fill="#031326"><path d="M48.89 24.779a1.845 1.845 0 00-1.638-.582c-1.687.252-6.037.602-9.969-1.596-1.395-.78-3.416-2.927-4.423-4.083.099-.791.198-2.041-.015-2.834l-.985-3.679c-.699-2.612-3.049-4.555-6.616-5.472-3.313-.851-7.356-.727-11.384.352C5.161 9.216-.562 15.117.832 20.319l.986 3.678c.418 1.561 2.355 3.285 3.207 3.982A22.905 22.905 0 0015.45 40.937a22.994 22.994 0 0012.117 3.079c.689-.02 1.234-.594 1.216-1.284s-.612-1.223-1.284-1.216c-3.774.115-7.51-.847-10.799-2.744a20.4 20.4 0 01-9.274-11.541c1.575.522 3.376.801 5.321.801 2.052 0 4.249-.294 6.463-.887 5.169-1.385 9.467-4.215 11.432-7.375.452.536 3.25 3.797 5.421 5.011 3.969 2.22 8.236 2.229 10.586 2.006a20.657 20.657 0 01-3.309 6.575 1.251 1.251 0 001.998 1.504 23.24 23.24 0 003.983-8.383 1.866 1.866 0 00-.431-1.704zM14.508 9.299c3.617-.969 7.208-1.092 10.114-.345 2.654.682 4.368 1.996 4.824 3.698l.255.951c-1.169 3.502-5.813 7.035-11.731 8.62-5.918 1.584-11.705.848-14.468-1.599l-.255-.952c-.997-3.72 4.16-8.47 11.261-10.373zm4.507 17.122c-4.511 1.209-9.07 1.099-12.223-.23-1.112-.877-2.384-2.186-2.559-2.84l-.406-1.517c1.93 1.292 4.715 1.994 7.896 1.994 2.03 0 4.219-.284 6.442-.88 5.706-1.529 10.181-4.718 11.861-8.132l.406 1.515c.095.356.012 1.535-.123 2.371l-.036.227c-1.7 3.173-6.008 6.085-11.258 7.492z"/><path d="M11.548 19.914c1.707 0 3.624-.253 5.594-.781 5.522-1.48 9.604-4.617 9.494-7.296l-.028-.106c-1.098-2.092-5.189-2.864-9.923-2.007a2.708 2.708 0 00-2.153-.335 2.706 2.706 0 00-1.698 1.367c-4.528 1.625-7.686 4.339-7.59 6.7l.029.106c.8 1.528 3.197 2.352 6.275 2.352zm1.055-8.534c-.104.429-.118.885.004 1.342a2.72 2.72 0 105.257-1.409 2.686 2.686 0 00-.667-1.164c4.254-.682 7.948-.014 8.942 1.765.035 2.401-3.951 5.35-9.126 6.736-5.175 1.387-10.101.826-11.271-1.27-.029-2.037 2.836-4.463 6.861-6z"/></g></svg>