<svg xmlns="http://www.w3.org/2000/svg" version="1" viewBox="0 0 50 50"><path fill="#B9D78D" d="M10.633 41.838L47 28.601c.22-1.257.34-2.548.34-3.867 0-12.338-10.002-22.34-22.34-22.34S2.66 12.396 2.66 24.734c0 6.866 3.1 13.006 7.973 17.104z"/><path fill="#CFF09E" d="M36.806 6.287a22.225 22.225 0 00-12.095-3.562c-10.038 0-18.529 6.621-21.346 15.734L36.806 6.287z"/><path fill="#031326" d="M30.694 2.274a9.681 9.681 0 00-1.596-.428 9.505 9.505 0 00-1.609-.141C15.319.402 4.019 8.758 1.863 20.984a23.35 23.35 0 003.892 17.559 23.317 23.317 0 0013.599 9.325 9.523 9.523 0 003.215.561c3.542 0 7.055-1.966 10.012-5.267 1.404.472 2.734.974 3.95 1.498a.694.694 0 00.55-1.276 51.15 51.15 0 00-3.539-1.365c2.766-3.518 4.929-8.263 5.99-13.688l7.352 1.296a.719.719 0 00.122.011c.12 0 .229-.04.33-.095.456-.099.826-.461.9-.949 1.822-11.96-5.957-23.418-17.542-26.32zM45.97 28.057l-6.197-1.093c.839-5.32.514-10.53-.922-14.918.282.005.563.017.846.017.64 0 1.283-.03 1.925-.054 3.459 4.41 5.191 10.155 4.348 16.048zM31.3 25.47c.849-5.037 1.233-9.864 1.101-13.839 1.662.189 3.326.321 4.963.375 1.503 4.268 1.871 9.424 1.04 14.716L31.3 25.47zM13.167 39.539c1.471.063 2.978.179 4.507.352.002.03.002.063.005.093.125 1.775.406 3.753.994 5.275a21.147 21.147 0 01-2.253-.848c-1.306-1.255-2.404-2.913-3.253-4.872zm-1.574-16.133l7.114 1.254c-.848 5.033-1.233 9.857-1.101 13.829a65.87 65.87 0 00-4.994-.371c-1.434-4.105-1.873-9.269-1.019-14.712zm25.217-12.82a61.47 61.47 0 01-4.476-.358l-.004-.083c-.126-1.78-.408-3.763-.999-5.287.768.242 1.518.523 2.242.846 1.278 1.23 2.367 2.884 3.237 4.882zm-8.997-6.512c.29.039.579.079.869.131.291.051.578.112.864.175.587.855 1.149 2.632 1.381 5.68a69.378 69.378 0 01-3.197-.481 78.027 78.027 0 01-3.164-.635c1.264-2.792 2.401-4.269 3.247-4.87zm-1.841-.164c-1.077 1.229-2.021 2.998-2.749 4.629l-.035.084a64.455 64.455 0 01-4.357-1.21c1.476-1.558 3.084-2.747 4.75-3.48a21.16 21.16 0 012.391-.023zm-8.143 4.65c1.544.505 3.162.956 4.815 1.359-1.482 3.688-2.771 8.353-3.696 13.373l-7.104-1.253c1.06-5.408 3.233-10.112 5.985-13.479zm4.363 37.5a19.195 19.195 0 01-.867-.135c-.299-.053-.587-.135-.882-.2-.581-.866-1.135-2.642-1.364-5.664a79.28 79.28 0 013.191.486c1.072.189 2.126.407 3.16.639-1.166 2.563-2.31 4.217-3.238 4.874zm3.798-6.172a69.862 69.862 0 00-6.986-1.238c-.15-3.915.223-8.716 1.071-13.748l9.614 1.695c-1.011 5.495-2.345 9.99-3.699 13.291zm-5.673-16.355c.925-5.019 2.216-9.659 3.696-13.287 1.173.262 2.341.501 3.476.702 1.188.209 2.365.38 3.514.523.151 3.917-.222 8.721-1.071 13.758l-9.615-1.696zM40.466 10.66c-.706.011-1.409.002-2.11-.017l-.01-.027a19.576 19.576 0 00-1.582-3.131 21.27 21.27 0 013.702 3.175zm-23.05-3.703a50.174 50.174 0 01-2.065-.734 21.199 21.199 0 014.731-1.756 19.631 19.631 0 00-2.666 2.49zm-3.614.146c.89.36 1.777.691 2.66.995-2.768 3.519-4.934 8.271-5.995 13.699l-6.185-1.091c1.226-5.841 4.783-10.646 9.52-13.603zM4.056 22.077l6.169 1.088c-.86 5.464-.449 10.671.949 14.924a54.64 54.64 0 00-2.821.029c-.235-.3-.48-.589-.7-.903-3.112-4.444-4.363-9.794-3.597-15.138zm5.446 17.394a56.88 56.88 0 012.178.014 19.516 19.516 0 001.657 3.256 20.955 20.955 0 01-3.835-3.27zm13.697 7.549c1.249-1.012 2.475-2.976 3.602-5.513 1.475.348 2.937.754 4.375 1.208-2.415 2.549-5.183 4.109-7.977 4.305zm8.983-5.45a62.601 62.601 0 00-4.834-1.357c1.525-3.793 2.831-8.588 3.715-13.374l7.109 1.254c-1.058 5.407-3.238 10.109-5.99 13.477z"/></svg>