<svg xmlns="http://www.w3.org/2000/svg" version="1" viewBox="0 0 50 50"><path fill="#FFC787" d="M24.39 10.768c.263 0 .53-.067.772-.207l4.322-2.494a1.547 1.547 0 10-1.548-2.68L23.614 7.88a1.547 1.547 0 00.776 2.888zm3.707-6.08V2.063a.85.85 0 00-.667-.83L25.57.817a.467.467 0 00-.57.456v5.142l2.68-1.545a2.03 2.03 0 01.42-.182zM24.39 15.122c.263 0 .53-.067.772-.207l4.322-2.495a1.548 1.548 0 10-1.548-2.68l-4.322 2.494a1.547 1.547 0 00.776 2.888zm3.546-1.032l-4.322 2.496a1.547 1.547 0 101.548 2.68l4.322-2.495a1.547 1.547 0 10-1.548-2.68z"/><path fill="#FFC787" d="M17.79 35.98a11.475 11.475 0 01-.142-1.743c0-5.624 4.077-9.983 9.35-9.983 2.742 0 5.06 1.336 6.467 2.953.633.562.984 1.265 2.04.28l1.335-1.124c.633-.492.773-1.336.28-1.968-1.85-2.367-4.123-3.895-6.858-4.55.01-.28-.06-.57-.21-.832a1.55 1.55 0 00-2.12-.57l-3.46 1.997.938-.097a2.49 2.49 0 01-.717.117 2.47 2.47 0 01-1.413-.447c-5.986 1.725-10.693 7.402-10.693 14.293 0 1.19.145 2.332.393 3.425l4.81-1.75z"/><path fill="#FFD49C" d="M28.097 4.688V2.063a.85.85 0 00-.667-.83L25.57.817a.467.467 0 00-.57.456v5.142l2.68-1.545a2.03 2.03 0 01.42-.182zm-3.707 6.08c.263 0 .53-.067.772-.207l4.322-2.494a1.547 1.547 0 00-1.548-2.68L23.614 7.88a1.547 1.547 0 00.776 2.888zm5.756.868c.163-.422.148-.91-.096-1.33a1.547 1.547 0 00-2.114-.567l-4.322 2.494a1.542 1.542 0 00-.616 2.004l7.148-2.602z"/><path fill="#031326" d="M37.054 39.787c-.893-.648-1.99-1.13-3.34.223-.178.17-.355.346-.536.525-1.417 1.408-2.882 2.863-6.252 2.863-4.664 0-8.317-4.024-8.317-9.16 0-5.06 3.684-9.022 8.387-9.022 2.167 0 4.313.98 5.74 2.622l.088.088c.082.073.158.15.232.22.458.453 1.53 1.51 3.065.078l1.307-1.1c1.058-.824 1.255-2.282.447-3.32-1.965-2.512-4.392-4.12-7.23-4.842-.034-.078-.053-.16-.096-.236a2.114 2.114 0 00-1.233-.97l.55-.317a2.32 2.32 0 00.848-3.166 2.293 2.293 0 00-1.182-.995l.334-.194a2.3 2.3 0 001.08-1.407 2.293 2.293 0 00-1.413-2.753l.333-.194a2.317 2.317 0 00-1.003-4.317V2.064c0-.765-.522-1.416-1.27-1.583L25.734.07a1.234 1.234 0 00-1.505 1.206v5.36l-1 .58c-.536.31-.92.81-1.08 1.407a2.304 2.304 0 00.23 1.76c.27.467.7.802 1.192.99l-.343.197a2.3 2.3 0 00-1.08 1.407 2.304 2.304 0 00.23 1.758c.27.468.7.803 1.19.99l-.34.198a2.3 2.3 0 00-1.08 1.407 2.303 2.303 0 00.232 1.76c.037.063.09.112.132.17-6.434 2.095-10.89 8.2-10.89 15.052 0 8.777 6.754 15.653 15.374 15.653a.962.962 0 000-1.924c-7.542 0-13.45-6.032-13.45-13.732 0-6.038 3.93-11.428 9.608-13.25a3.48 3.48 0 003.25-.094l.91-.526c3.74.063 6.702 1.553 9.046 4.548.19.244.058.486-.14.642l-1.374 1.157a1.94 1.94 0 01-.232.19c-.063-.056-.142-.134-.206-.197-.083-.08-.168-.165-.258-.247-1.788-2.028-4.457-3.237-7.153-3.237-5.783 0-10.312 4.807-10.312 10.944 0 6.216 4.498 11.085 10.24 11.085 4.164 0 6.074-1.897 7.608-3.422.172-.17.34-.338.525-.515.276-.275.4-.313.398-.316.027.003.138.034.465.272l.773.563a.964.964 0 001.344-.212.96.96 0 00-.212-1.343l-.774-.563zM29.1 16.105L24.777 18.6a.8.8 0 01-1.064-.285.773.773 0 01.285-1.063l4.32-2.496a.776.776 0 011.064.286.778.778 0 01-.285 1.063zm-4.323-1.857a.8.8 0 01-1.063-.285A.778.778 0 0124 12.9l4.32-2.496a.776.776 0 011.064.286.778.778 0 01-.285 1.063l-4.323 2.495zm.994-12.596l1.493.33a.083.083 0 01.065.082v2.12l-.034.02-1.523.88V1.65zM23.637 9.02A.774.774 0 0124 8.546l4.32-2.495A.778.778 0 1129.1 7.4l-4.32 2.496a.797.797 0 01-1.064-.285.775.775 0 01-.078-.59z"/></svg>