<svg xmlns="http://www.w3.org/2000/svg" version="1" viewBox="0 0 50 50"><path fill="#D2D971" d="M9.144 40.66l24.347-8.863-6.084-6.086a.736.736 0 01.153-1.157l18.89-10.906a.75.75 0 00.265-1.035C39.368.792 22.795-2.368 11.558 7.038 4.06 13.313 1.238 23.848 4.593 33.03a23.492 23.492 0 004.55 7.63z"/><path fill="#EAF27E" d="M45.204 8.707C36.97.212 22.974-1.23 13.1 7.037c-4.948 4.14-7.844 10.135-8.29 16.373L45.204 8.706z"/><path fill="#031326" d="M25.008 49.79c-.034 0-.068-.002-.103-.005-9.903-.76-18.164-7.005-21.56-16.3-3.566-9.758-.608-20.796 7.358-27.464A24.87 24.87 0 0130.607.525c7.167 1.148 13.448 5.3 17.232 11.388a2.076 2.076 0 01-.73 2.884l-18.222 10.52 14.878 14.88c.397.398.618.947.607 1.508a2.036 2.036 0 01-.65 1.467 24.844 24.844 0 01-4.567 3.39 1.326 1.326 0 11-1.327-2.297 22.25 22.25 0 003.632-2.62L26.47 26.65a2.05 2.05 0 01-.587-1.73 2.045 2.045 0 011.016-1.516L45.26 12.8c-3.408-5.156-8.866-8.662-15.072-9.657-6.444-1.035-12.76.71-17.78 4.912-7.114 5.953-9.754 15.807-6.57 24.52C8.872 40.88 16.256 46.46 25.108 47.14a1.326 1.326 0 01-.1 2.65z"/><circle cx="27.066" cy="14.935" r="3.466" fill="#031326" transform="rotate(-30 27.065 14.936)"/></svg>