<svg xmlns="http://www.w3.org/2000/svg" version="1" viewBox="0 0 50 50"><path fill="#A6C1C2" d="M43.608 14.33V3.7a2.256 2.256 0 00-2.256-2.256H8.647A2.256 2.256 0 006.39 3.702v24.172L43.61 14.33z"/><path fill="#B9D7D9" d="M43.025 2.202a2.242 2.242 0 00-1.673-.755H8.647A2.256 2.256 0 006.39 3.703v11.833L43.026 2.202z"/><path fill="#031326" d="M17.137 49.78c-.304 0-.61-.06-.905-.182a2.35 2.35 0 01-1.455-2.18v-7.53h-6.13a3.484 3.484 0 01-3.48-3.48V3.7c0-1.92 1.56-3.48 3.48-3.48h32.705c1.92 0 3.48 1.56 3.48 3.48v23.24a1.225 1.225 0 01-2.45 0V3.703c0-.568-.462-1.03-1.03-1.03H8.647c-.568 0-1.03.462-1.03 1.03v32.705c0 .568.462 1.03 1.03 1.03h8.58v9.76l9.76-9.76h8.54a1.225 1.225 0 010 2.45H28l-9.198 9.2a2.344 2.344 0 01-1.665.692z"/><path fill="#031326" d="M19.043 12.14c1.47 0 2.654.334 3.554 1.003s1.35 1.57 1.35 2.703a3.53 3.53 0 01-.652 2.094c-.434.612-1.134 1.16-2.1 1.643 1.148.616 1.972 1.258 2.472 1.926s.75 1.4.75 2.198c0 1.26-.492 2.273-1.48 3.04s-2.284 1.15-3.894 1.15c-1.68 0-3-.358-3.958-1.072-.96-.714-1.438-1.725-1.438-3.034 0-.875.233-1.652.698-2.33s1.213-1.278 2.24-1.796c-.874-.553-1.504-1.144-1.89-1.774a3.89 3.89 0 01-.576-2.068c0-1.1.454-1.988 1.364-2.666.91-.68 2.096-1.018 3.56-1.018zM16.65 23.603c0 .602.21 1.07.63 1.407s.993.504 1.72.504c.806 0 1.408-.173 1.807-.52.4-.346.598-.803.598-1.37 0-.47-.198-.908-.593-1.317-.395-.41-1.038-.845-1.926-1.307-1.49.686-2.237 1.554-2.237 2.603zm2.372-9.09c-.553 0-1 .14-1.338.424s-.51.663-.51 1.14c0 .42.136.795.405 1.128.268.332.757.674 1.463 1.024.686-.323 1.165-.652 1.438-.988.274-.336.41-.724.41-1.165 0-.483-.175-.864-.525-1.144-.35-.28-.797-.42-1.343-.42zm9.81 9.34v-.86c0-.983.18-1.802.537-2.455.357-.653.983-1.33 1.878-2.026 1.065-.84 1.75-1.494 2.06-1.96.31-.464.463-1.02.463-1.663 0-.753-.25-1.33-.75-1.732-.502-.403-1.222-.604-2.162-.604-.85 0-1.637.12-2.362.362a16.81 16.81 0 00-2.12.872l-1.127-2.362a11.813 11.813 0 015.837-1.516c1.754 0 3.145.43 4.174 1.288 1.03.86 1.544 2.044 1.544 3.556 0 .67-.098 1.268-.295 1.792s-.495 1.022-.893 1.496-1.085 1.09-2.06 1.852c-.832.653-1.39 1.194-1.67 1.624-.283.43-.424 1.006-.424 1.73v.605h-2.63zm-.55 4.28c0-1.35.658-2.025 1.973-2.025.644 0 1.136.177 1.476.53s.51.852.51 1.496c0 .635-.17 1.138-.516 1.51-.344.37-.834.556-1.47.556s-1.122-.18-1.462-.544-.51-.87-.51-1.522z"/></svg>