<svg xmlns="http://www.w3.org/2000/svg" id="Layer_1" x="0" y="0" version="1.1" viewBox="0 0 48 47" xml:space="preserve"><style>.st3{fill:#444}</style><switch><g><path fill="#fcc34f" d="M45.2 10.6l.7 4.9L2.3 31.3 1.8 21v-5.8L39.9 1.4l4.9 2.1z"/><path fill="#fdcf72" d="M44 1.4l2.1 3.1L1.8 20.3 2.9 4.1l2.8-2.7 27.4-.2z"/><path fill="none" stroke="#444" stroke-linecap="round" stroke-linejoin="round" stroke-miterlimit="10" stroke-width="2.5" d="M17.5 45.2h-12c-1.8 0-3.2-1.5-3.2-3.3V5.1c0-1.8 1.4-3.3 3.2-3.3h36.9c1.8 0 3.2 1.5 3.2 3.3v23.2"/><circle cx="8.1" cy="7.3" r="1.3" class="st3"/><circle cx="11.8" cy="7.3" r="1.3" class="st3"/><circle cx="15.4" cy="7.3" r="1.3" class="st3"/><path d="M15.4 38.4l2.3-1.4c.4.8.9 1.5 1.8 1.5s1.5-.4 1.5-1.8V27h2.9v9.7c0 3-1.7 4.3-4.3 4.3-2.2 0-3.5-1.1-4.2-2.6zm10.1-.3l2.3-1.3c.6 1 1.4 1.7 2.8 1.7 1.2 0 1.9-.6 1.9-1.4 0-1-.8-1.3-2.1-1.9l-.7-.3c-2.1-.9-3.4-2-3.4-4.3 0-2.1 1.6-3.8 4.2-3.8 1.8 0 3.1.6 4.1 2.3l-2.2 1.4c-.5-.9-1-1.2-1.8-1.2s-1.4.5-1.4 1.2c0 .9.5 1.2 1.8 1.7l.7.3c2.4 1 3.8 2.1 3.8 4.5 0 2.6-2 4-4.7 4-2.8 0-4.5-1.2-5.3-2.9zM42.6 33l-1.9 7.5H39l1.9-7h-1.5v1.3h-1.6V32h4.9v1z" class="st3"/><circle cx="36.7" cy="39.9" r=".6" class="st3"/></g></switch></svg>