<svg xmlns="http://www.w3.org/2000/svg" id="Layer_1" x="0" y="0" version="1.1" viewBox="0 0 50 50" xml:space="preserve"><style>.st2{fill:#031326}</style><path fill="#e589ef" d="M48.4 7.1l-46.8 17v18.6l46.8-17z"/><path fill="#f799ff" d="M48.4 7H1.6v17.1l46.8-17z"/><path d="M49.6 44.2H.4V5.8h49.3v38.4zM2.9 41.7h44.3V8.3H2.9v33.4z" class="st2"/><path d="M25 9.1c-.2 0-.4-.2-.4-.4V6.8c0-.2.2-.4.4-.4s.4.2.4.4v1.9c0 .3-.2.4-.4.4zm0 4.9c-.2 0-.4-.2-.4-.4v-1.9c0-.2.2-.4.4-.4s.4.2.4.4v1.9c0 .3-.2.4-.4.4zm0 5c-.2 0-.4-.2-.4-.4v-1.9c0-.2.2-.4.4-.4s.4.2.4.4v1.9c0 .2-.2.4-.4.4zm0 4.9c-.2 0-.4-.2-.4-.4v-1.9c0-.2.2-.4.4-.4s.4.2.4.4v1.9c0 .2-.2.4-.4.4zm0 4.9c-.2 0-.4-.2-.4-.4v-1.9c0-.2.2-.4.4-.4s.4.2.4.4v1.9c0 .2-.2.4-.4.4zm0 4.9c-.2 0-.4-.2-.4-.4v-1.9c0-.2.2-.4.4-.4s.4.2.4.4v1.9c0 .2-.2.4-.4.4zm0 4.9c-.2 0-.4-.2-.4-.4v-1.9c0-.2.2-.4.4-.4s.4.2.4.4v1.9c0 .3-.2.4-.4.4zm0 4.9c-.2 0-.4-.2-.4-.4v-1.9c0-.2.2-.4.4-.4s.4.2.4.4v1.9c0 .3-.2.4-.4.4zM6.2 25.7c-.7 0-1.2-.6-1.2-1.2v-6.9c0-.7.6-1.2 1.2-1.2s1.2.6 1.2 1.2v6.9c0 .6-.5 1.2-1.2 1.2zm37.7 13c-.7 0-1.2-.6-1.2-1.2v-6.9c0-.7.6-1.2 1.2-1.2s1.2.6 1.2 1.2v6.9c.1.6-.5 1.2-1.2 1.2z" class="st2"/><circle cx="39.4" cy="33" r="1.7" class="st2"/></svg>