<svg xmlns="http://www.w3.org/2000/svg" id="Layer_1" x="0" y="0" version="1.1" viewBox="0 0 50 50" xml:space="preserve"><style>.st2{fill:#494949}</style><path fill="#afe55d" d="M43.7 12.8v7.5l-1.3.5-1.1.4-1.6.6-1.1.4-5 1.8-3.2 1.2-3.2 1.2-3.7 1.4L11.4 32l-1.1.4-1.7.6-1.1.4-1.3.5V18.2l1.3-.5 1.1-.4 1.7-.6 1.1-.4 7-2.5 1-.4 11.3-4.1.3-.1 2.7-1 .2-.2 4.8-1.7h.1l1-.4v2.7c0 .1 0 .2-.1.3v2.7h2.9c.6 0 1.1.5 1.1 1.2z"/><path fill="#c3ff68" d="M39.8 6.2v.3l-.8.3-.2.1L35.5 8l-.3.1-2.7 1-.3.1L21 13.4l-2.6.9-7 2.6-1.1.4-1.7.6-1.1.4-1.3.5v-6c0-.6.5-1.1 1.2-1.1h2.9V6.2c0-1.3 1-2.3 2.3-2.3h24.8c1.2 0 2.1.9 2.3 2 .1.1.1.2.1.3z"/><path d="M18.7 43.8c-.8-.6.8-1.2.8-3.8v-2c0-.7 1.1-.7 1.1 0 0 2.1.2 3.7-1.1 5.7-.2.2-.6.2-.8.1zm11.8-.2c-1.3-1.9-1.1-3.4-1.1-5.7 0-.7 1.1-.7 1.1 0 0 2-.2 3.4.9 5 .4.7-.5 1.3-.9.7zm11.4-8.9H8.1c-.3 0-.5-.2-.5-.5V14c0-.3.2-.5.5-.5h2.2c.7 0 .7 1.1 0 1.1H8.7v19.1h32.7V14.4h-1.5c-.7 0-.7-1.1 0-1.1H42c.3 0 .5.2.5.5v20.3c-.1.4-.3.6-.6.6zm0 2.5c-.8 0-.8-1.2 0-1.2s.8 1.2 0 1.2zm-2.4 0c-.8 0-.8-1.2 0-1.2s.8 1.2 0 1.2zm-2.5 0c-.8 0-.8-1.2 0-1.2s.8 1.2 0 1.2z" class="st2"/><path d="M39.7 8.7v25.2c0 .7-1.1.7-1.1 0V9.2H11.4v24.5c0 .7-1.1.7-1.1 0V8.5c.1-.2.3-.4.5-.4h28.3c.4 0 .6.3.6.6z" class="st2"/><path d="M39.8 5.9c-.2-1.1-1.1-2-2.3-2H12.7c-1.3 0-2.3 1-2.3 2.3v2.4c0 .3.2.5.5.5h28.3c.2 0 .4-.1.5-.3 0-.1.1-.2.1-.3V5.9zM12.7 5h24.8c.7 0 1.2.5 1.2 1.1V8H11.5V6.1c0-.6.5-1.1 1.2-1.1z" class="st2"/><path d="M13.5 6.6c0 .8 1.2.8 1.2 0-.1-.8-1.2-.8-1.2 0zm2.1 0c0 .8 1.2.8 1.2 0-.1-.8-1.2-.8-1.2 0zm2.1 0c0 .8 1.2.8 1.2 0-.1-.8-1.2-.8-1.2 0z" class="st2"/><path fill="#444" d="M33.7 23.9c-.1-.5-.2-.9-.3-1.2-.3-.6-.7-1-1.2-1.5-.5-.4-1.3-.8-2.4-1.3-.9-.4-1.6-.7-1.9-.9-.3-.2-.5-.4-.7-.6-.1-.2-.2-.5-.2-.7 0-.4.1-.7.4-1 .3-.3.8-.4 1.5-.4.9 0 2.1.3 3.3.8l.4.2 1.1-2.7-.4-.2c-1.4-.6-2.9-.9-4.3-.9-1.6 0-2.8.4-3.7 1.1-1 .8-1.5 1.9-1.5 3.2 0 1.1.3 2 .9 2.8.6.7 1.6 1.4 3 2 1.5.6 2.2 1 2.4 1.3.3.3.5.6.5 1.1v.3c-.1.3-.2.6-.5.8-.5.4-1.5.5-2.7.4-.4 0-.7-.1-1.1-.2-.7-.2-1.4-.4-2-.7l-.7-.6v3.2l.2.1c1.1.5 2.5.8 4.2.8 1.7 0 3.1-.4 4.1-1.2 1-.8 1.6-2 1.6-3.4v-.6zM18.4 13.4v10.9c0 1.8-.8 2-1.5 2-.4 0-.8-.1-1.4-.2l-.5-.2v2.8l.3.1c.5.2 1.1.3 1.8.3 1.5 0 2.6-.4 3.4-1.3.8-.9 1.2-2.1 1.2-3.7V13.4h-3.3z"/><path d="M36.8 5c.8 0 1.5.5 1.9 1.1l.1.1c.1.2.1.3.2.5v2.7c0 .1 0 .2-.1.3v1.8h3.7c.7 0 1.2.5 1.2 1.1V37c0 .7-.6 1.2-1.2 1.2H30.2c0 1.7-.1 3 .8 4.4h3.1c.3 0 .5.2.5.5v1.8h7.2c.3 0 .5.2.5.5s-.2.5-.5.5H9.1c-.7 0-.7-1 0-1h6.3v-1.8c0-.3.2-.5.5-.5H19c.3-.5.8-1.3.8-2.7v-1.6H7.4c-.6 0-1.2-.5-1.2-1.1V12.8c0-.6.5-1.1 1.2-1.1h3.7V7.2c0-.4.1-.8.3-1.1.4-.6 1.2-1.1 2-1.1h23.4m0-2.5H13.4c-1.7 0-3.3.9-4.1 2.4-.4.7-.6 1.5-.6 2.3v1.9H7.4c-2 0-3.7 1.6-3.7 3.6v24.4c0 2 1.6 3.6 3.7 3.6H14c-.6.4-1 1-1.1 1.7H9.1c-1.7 0-3 1.3-3 3s1.3 3 3 3h32.8c1.7 0 3-1.4 3-3 0-1.7-1.4-3-3-3H37c-.2-.7-.6-1.3-1.1-1.7h6.6c2.1 0 3.7-1.7 3.7-3.7V12.8c0-2-1.6-3.6-3.7-3.6h-1.1v-2c0-.3 0-.6-.1-.9-.1-.4-.2-.7-.4-1.1v-.1c0-.1-.1-.2-.2-.3-.7-1.4-2.2-2.3-3.9-2.3z" class="st2"/></svg>