<svg xmlns="http://www.w3.org/2000/svg" id="Layer_1" x="0" y="0" version="1.1" viewBox="0 0 50 50" xml:space="preserve"><style>.st4{fill:none;stroke:#444;stroke-linejoin:round}</style><path fill="#fcc34f" d="M48.5 23.7l.3 5L1.5 45.8l.3-9.4.3-5.3 46.6-17 .3 3.1z"/><path fill="#fdcf72" d="M48.2 2.9l.2 11.9L1.9 31.7V21.5l.4-4.6L45.6 1.8z"/><path fill="none" stroke="#444" stroke-linecap="round" stroke-linejoin="round" stroke-width="2.5" d="M5.6 48.3H1.2V1.7h46.9v46.6H31.9"/><path fill="#444" d="M35.2 18.1c0-.3-.1-.4-.2-1-.3-.6-.4-.9-.7-1.3-.5-.7-1.2-1.3-2-1.7l-1.8-.9c-.7-.3-1.5-.7-2.2-1-.3-.2-.6-.4-.8-.7-.1-.2-.2-.5-.2-.8 0-.4.1-.9.5-1.1.5-.4 1.1-.5 1.7-.5 1.3.1 2.6.4 3.8.9l.5.2 1.2-3-.3-.2c-1.6-.7-3.2-1-4.9-1-1.5 0-3 .4-4.3 1.4-1.1.9-1.8 2.2-1.7 3.7 0 1.2.3 2.3 1 3.2 1 1 2.1 1.7 3.4 2.2 1 .3 2 .9 2.8 1.6.4.3.6.7.6 1.2v.3c-.1.4-.3.8-.6 1-.7.4-1.4.5-2.1.6-.6 0-1.1 0-1.7-.1-.2 0-.4-.1-.6-.1-.4-.1-.8-.2-1.2-.4-.7-.2-1.3-.6-1.9-1.1V23l.2.1c1.5.6 3.1.9 4.8 1 1.7.1 3.3-.5 4.7-1.5 1.2-.9 2.1-2.3 2-3.8v-.7zM17.6 5.9v12.5c0 2.1-.9 2.3-1.7 2.3-.5 0-1.1-.1-1.6-.2l-.6-.2v3.2l.3.1c.7.2 1.4.4 2.1.3 1.5.1 2.9-.4 3.9-1.5 1-1.2 1.5-2.7 1.4-4.3V5.9h-3.8z"/><circle cx="17.1" cy="29.8" r="2" class="st4"/><circle cx="21.3" cy="37" r="1.8" class="st4"/><path d="M20 37.1h-5.5" class="st4"/><circle cx="12.7" cy="37" r="1.8" class="st4"/><path d="M19.2 29.7h11" class="st4"/><circle cx="31.8" cy="29.8" r="2" class="st4"/><circle cx="36.2" cy="37.1" r="1.8" class="st4"/><path d="M34.8 37.2h-5.4" class="st4"/><circle cx="27.5" cy="37.1" r="1.8" class="st4"/><path d="M17 31.6v5.8m14.8-5.6v5.8m4.4 1.5v2.5" class="st4"/><circle cx="36.2" cy="43.1" r="1.5" class="st4"/><path d="M24.1 29.5v-8.6" class="st4"/></svg>