<svg xmlns="http://www.w3.org/2000/svg" id="Layer_1" x="0" y="0" version="1.1" viewBox="0 0 50 50" xml:space="preserve"><style>.st2{fill:#031326}</style><path fill="#c86060" d="M45.2 3L6.1 17.2l2 22.6L43 27.1z"/><path fill="#e06b6b" d="M45.4 1.8H4.6l1.5 15.9L45.2 3.5z"/><path d="M25 49.4l-17.7-5L3.3.6h43.5l-2.6 28.6c-.1.7-.7 1.2-1.4 1.1-.7-.1-1.2-.7-1.1-1.4L44 3.1H6l3.6 39.4L25 46.8l16.3-4.6c.7-.2 1.4.2 1.5.9.2.7-.2 1.4-.9 1.5L25 49.4z" class="st2"/><path id="path5157_1_" d="M11.5 34.7v-4.9s5 1.4 7.9 2.1V10.6h4.1v27.3l-12-3.2z" class="st2"/><path d="M24.5 45.3V4.9h17.7L39 41.4l-14.5 3.9zm1-39.4V44l12.6-3.4 3.1-34.8H25.5z" class="st2"/><path d="M37.7 35l1.1-13.3-8.1.9v-7.1h8.6l.4-4.9-13.1.1.2 17.7 7.9-1.4-.1 4-8 2.1.1 4.8 11-2.9z" class="st2"/></svg>