<svg xmlns="http://www.w3.org/2000/svg" id="Layer_1" x="0" y="0" version="1.1" viewBox="0 0 50 50" xml:space="preserve"><style>.st3{fill:#444}</style><path fill="#fcc34f" d="M47.7 11.6l.8 5.2L2.4 33.6l-.5-10.9-.1-6.2L42.1 1.9l5.2 2.3z"/><path fill="#fdcf72" d="M46.1 2l2.3 3.2L1.5 21.9 2.6 4.8l3-2.9 29.1-.2z"/><path fill="none" stroke="#444" stroke-linecap="round" stroke-linejoin="round" stroke-miterlimit="10" stroke-width="2.5" d="M18.1 48.3H5.5c-1.9 0-3.4-1.6-3.4-3.5v-39c0-2 1.5-3.5 3.4-3.5h39c1.9 0 3.4 1.6 3.4 3.5v24.6"/><circle cx="34" cy="8.2" r="1.4" class="st3"/><circle cx="37.8" cy="8.2" r="1.4" class="st3"/><circle cx="41.6" cy="8.2" r="1.4" class="st3"/><path fill="#494949" d="M8.2 21.8c0 .6.5 1.1 1.1 1.1H26c.6 0 1.1-.5 1.1-1.1 0-.6-.5-1.1-1.1-1.1H9.4c-.7-.1-1.2.4-1.2 1.1zm9.9 5.1H9.4c-.6 0-1.1.5-1.1 1.1 0 .6.5 1.1 1.1 1.1h8.8c.6 0 1.1-.5 1.1-1.1 0-.6-.5-1.1-1.2-1.1zM8.6 8.5c-.4.4-.4 1.2 0 1.6l2 2-2 2c-.4.4-.4 1.2 0 1.6.4.4 1.2.4 1.6 0L13 13c.1-.1.2-.2.3-.4.2-.4.1-.9-.3-1.2l-2.9-2.9c-.4-.4-1.1-.4-1.5 0zm9.5 24.9H9.4c-.6 0-1.1.5-1.1 1.1 0 .6.5 1.1 1.1 1.1h8.8c.6 0 1.1-.5 1.1-1.1 0-.6-.5-1.1-1.2-1.1zm3.8-5.4c0 .6.5 1.1 1.1 1.1h16.5c.6 0 1.1-.5 1.1-1.1 0-.6-.5-1.1-1.1-1.1H23.1c-.6 0-1.2.5-1.2 1.1zm-6.4 11.6h-.8c-.6 0-1.1.5-1.1 1.1 0 .6.5 1.1 1.1 1.1h.8c.6 0 1.1-.5 1.1-1.1 0-.5-.5-1.1-1.1-1.1zm7.4-6.2h-.8c-.6 0-1.1.5-1.1 1.1 0 .6.5 1.1 1.1 1.1h.8c.6 0 1.1-.5 1.1-1.1.1-.6-.4-1.1-1.1-1.1zm-12.8 6.2h-.7c-.6 0-1.1.5-1.1 1.1 0 .6.5 1.1 1.1 1.1h.8c.6 0 1.1-.5 1.1-1.1 0-.5-.5-1.1-1.2-1.1zm25.6-6.2H27c-.6 0-1.1.5-1.1 1.1 0 .6.5 1.1 1.1 1.1h8.8c.6 0 1.1-.5 1.1-1.1 0-.6-.5-1.1-1.2-1.1z"/></svg>