<svg xmlns="http://www.w3.org/2000/svg" version="1" viewBox="0 0 50 50"><path fill="#FCC34F" d="M45.791 23.485v-5.286c0-.435-.173-.853-.481-1.161L30.128 1.856a1.64 1.64 0 00-1.161-.48H6.988a2.779 2.779 0 00-2.779 2.779V38.62l41.582-15.135z"/><path fill="#FDCF72" d="M36.585 8.313l-6.457-6.457a1.64 1.64 0 00-1.161-.48H6.988a2.779 2.779 0 00-2.779 2.779v15.943L36.585 8.313z"/><path fill="#031326" d="M40.65 20.414H29.149a2.516 2.516 0 01-2.514-2.514V6.398a.726.726 0 111.452 0V17.9c0 .586.477 1.063 1.063 1.063h11.5a.726.726 0 110 1.451z"/><path fill="#031326" d="M36.436 49.835H6.988A3.993 3.993 0 013 45.847V4.154A3.993 3.993 0 016.988.166h21.98c.751 0 1.486.305 2.016.836l15.181 15.181c.539.538.835 1.254.835 2.016v15.696a1.209 1.209 0 11-2.418 0V18.199a.438.438 0 00-.126-.306L29.273 2.711a.434.434 0 00-.305-.127H6.988c-.865 0-1.569.704-1.569 1.569v41.693c0 .865.704 1.569 1.569 1.569h29.448a1.21 1.21 0 110 2.42z"/><path fill="#031326" d="M23.878 36.814c0 1.98-.892 2.233-1.668 2.233-.41 0-.906-.073-1.476-.214l-.576-.145v3.102l.299.112c.529.201 1.186.303 1.949.303 1.617 0 2.873-.486 3.733-1.443.848-.943 1.278-2.301 1.278-4.035V24.929h-3.539v11.885zm16.346-1.681c-.285-.593-.732-1.128-1.331-1.592-.582-.45-1.458-.914-2.674-1.421-1.006-.413-1.704-.749-2.078-.992-.337-.221-.576-.45-.714-.682-.131-.219-.196-.497-.196-.823 0-.462.16-.821.488-1.097.346-.292.89-.441 1.615-.441 1.042 0 2.255.288 3.606.856l.439.185 1.16-2.979-.404-.179c-1.561-.691-3.154-1.041-4.735-1.041-1.69 0-3.066.419-4.088 1.245-1.053.85-1.586 2.025-1.586 3.493 0 1.16.334 2.172.992 3.008.651.825 1.717 1.53 3.258 2.156 1.681.674 2.366 1.122 2.645 1.378.352.325.524.709.524 1.171 0 .517-.183.914-.56 1.215-.694.555-2.311.647-4.159.205a11.557 11.557 0 01-2.223-.774l-.662-.31v3.479l.261.127c1.204.587 2.757.885 4.619.885 1.896 0 3.417-.441 4.518-1.307 1.137-.894 1.711-2.136 1.711-3.693 0-.785-.143-1.481-.426-2.072z"/></svg>