<svg xmlns="http://www.w3.org/2000/svg" viewBox="0 0 50 50"><path fill="#b9d7d9" d="M35.8 4l7.3 5.5 1.9 6.7L1.9 31.9l.9-13.6L8.6 8.1l13.8-6.3z"/><path fill="#a6c1c2" d="M47.1 20.2v.5L5 35.8 4 35l-2.2-7.9L43.6 11l2.1 4.2z"/><path fill="none" stroke="#444" stroke-linecap="round" stroke-linejoin="round" stroke-miterlimit="10" stroke-width="2.5" d="M42.8 10.1c6.3 7.5 7.4 18.5 1.9 27.2C38.3 47.4 25.5 51 15 45.9m-9-7.6C.8 30.9.3 20.9 5.4 12.8c6.8-10.9 21.1-14.2 32-7.4m5.4 4.7S40.3 7 37.2 5.2"/><path fill="none" fill-rule="evenodd" stroke="#444" stroke-miterlimit="10" d="M31.3 46.6V31.4c0-1.5-1.2-2.7-2.7-2.7H26v19M38.6 43V31.6c0-1.5-1.2-2.7-2.7-2.7h-2.7v17.3m13-12.5v-2.3c0-1.5-1.2-2.7-2.7-2.7h-2.7v12.8m7-19.2H23.4c-.3 0-.5.2-.5.5v2c0 1.3 1.1 2.4 2.4 2.4h22.5v-4.9zm-.2-2.3c-.4-3.4-1.7-5.7-1.7-5.7H20c-.3 0-.6.3-.6.6v2.3c0 1.6 1.3 2.8 2.8 2.8h25.4m.3 5.2h0z" clip-rule="evenodd"/><path fill="#444" d="M9.6 39c-.1 2.6-1.6 1.8-3 1.6v2.6c8.3 2.9 5.5-9.5 6-13.8h-3V39zM23 37.6c-.6-1.7-3.5-2.4-5-3.3-2.7-2.8 2.5-2.9 4.3-1.7l.9-2.5c-4-2.6-11.5.1-8.1 5.3.5 1 4.3 2.3 4.9 2.9 2 3.3-4 2.5-5.8 1.2v2.8c3.6 2.4 11 .6 8.8-4.7z"/><path fill="none" fill-rule="evenodd" stroke="#444" stroke-miterlimit="10" stroke-width=".25" d="M27.6 28.7v18.2m7.3-18v16.2m7.7-16.4v10.8M19.2 15.9h27.1m-23.8 8.2h24.8" clip-rule="evenodd"/></svg>