<svg xmlns="http://www.w3.org/2000/svg" version="1" viewBox="0 0 50 50"><path fill="#B9D78D" d="M27.236 34.523L26.1 36.3l4.11-1.495a10.126 10.126 0 01-2.974-.282zm8.452-1.713l11.02-4.01.263-.27-7.893-.255a9.974 9.974 0 01-3.39 4.536zm2.665-13.11c.412.71.71 1.434.923 2.172l7.908.255a17.33 17.33 0 00-2.187-6.275 17.614 17.614 0 00-2.94-3.777l-.48-.27a5.61 5.61 0 00.9-.372 5.517 5.517 0 00-5.154-9.758 5.513 5.513 0 00-2.78 6.183l-.48-.27a17.74 17.74 0 00-11.272.824l4.317 6.616c4.275-1.107 8.932.682 11.246 4.672zM10.75 29.757a5.498 5.498 0 001.675-1.36l.003.63a17.32 17.32 0 001.874 4.644 17.883 17.883 0 003.28 4.104l4.245-6.687c-.312-.397-.625-.81-.88-1.264a10.066 10.066 0 01.81-11.287l-4.33-6.616a17.692 17.692 0 00-5.04 8.76c.01.012.02.025.033.037l-.034-.037.003.64a5.517 5.517 0 10-1.64 8.437z"/><path fill="#CFF09E" d="M29.63 14.71l15.103-5.497a5.517 5.517 0 00-7.41-7.537 5.513 5.513 0 00-2.78 6.183l-.48-.27a17.74 17.74 0 00-11.273.823l4.317 6.616a10.113 10.113 0 012.524-.32zm-17.243 6.277l8.862-3.225-3.824-5.842a17.692 17.692 0 00-5.04 8.76l.034.037-.034-.037v.307zm-.243.088C10.484 19.34 7.827 18.822 5.598 20a5.51 5.51 0 00-2.924 4.522l9.47-3.447z"/><path fill="#031326" d="M22.596 30.48c-.265-.336-.567-.73-.803-1.147a9.034 9.034 0 01.73-10.19l.438-.552-5.358-8.188-.85.808a18.647 18.647 0 00-5.04 8.223 6.538 6.538 0 00-1.622-.762 6.457 6.457 0 00-4.95.463 6.506 6.506 0 00-2.712 8.78 6.504 6.504 0 008.78 2.71c.192-.103.377-.213.557-.33a18.45 18.45 0 001.69 3.87 19 19 0 003.457 4.327l.863.804 5.25-8.27-.43-.543zm-12.302-1.59a4.546 4.546 0 01-6.133-1.893 4.544 4.544 0 014.01-6.66c.45 0 .902.068 1.344.204a4.51 4.51 0 012.674 2.218 4.51 4.51 0 01.324 3.458 4.514 4.514 0 01-2.218 2.675zm7.115 7.328a16.886 16.886 0 01-2.262-3.04 16.415 16.415 0 01-1.64-3.884 6.907 6.907 0 001.602-4.463 6.884 6.884 0 00-1.646-4.424c.698-2.59 2-4.96 3.808-6.934l3.29 5.028a10.97 10.97 0 00-.47 11.802c.17.3.356.578.542.834l-3.225 5.082zm9.945-20.241c3.945-1.024 8.12.71 10.152 4.214a8.53 8.53 0 01.83 1.953l.196.685 9.79.317-.17-1.158a18.268 18.268 0 00-2.307-6.625 18.575 18.575 0 00-2.468-3.324c2.832-1.794 3.86-5.502 2.27-8.516a6.452 6.452 0 00-3.83-3.174 6.457 6.457 0 00-4.95.462 6.504 6.504 0 00-3.46 5.64 18.596 18.596 0 00-10.993 1.06l-1.084.453 5.342 8.19.682-.176zM37.78 2.54a4.516 4.516 0 013.46-.322 4.51 4.51 0 012.674 2.217 4.544 4.544 0 01-1.894 6.133c-1.072.566-2.3.68-3.458.323a4.51 4.51 0 01-2.674-2.216A4.544 4.544 0 0137.78 2.54zM33.24 8.4a6.842 6.842 0 003.257 4.19 6.856 6.856 0 005.298.61 16.71 16.71 0 012.358 3.147 16.172 16.172 0 011.852 4.763l-6.01-.194a10.417 10.417 0 00-.795-1.707c-2.353-4.056-7.064-6.163-11.643-5.285l-3.28-5.028A16.616 16.616 0 0133.24 8.4zm13.763 19.153l-8.6-.28-.244.664a8.945 8.945 0 01-3.948 4.69 8.998 8.998 0 01-6.74.947l-.682-.17-5.273 8.26 1.093.44a18.8 18.8 0 007.042 1.38c1.13 0 2.26-.107 3.38-.315a6.435 6.435 0 00.738 3.31 6.452 6.452 0 003.828 3.173 6.467 6.467 0 004.95-.462.978.978 0 10-.913-1.73c-1.072.565-2.3.68-3.458.323a4.51 4.51 0 01-2.674-2.217 4.542 4.542 0 011.894-6.132 4.498 4.498 0 013.458-.323 4.51 4.51 0 012.674 2.218.98.98 0 001.73-.914 6.452 6.452 0 00-3.827-3.174 6.452 6.452 0 00-4.95.464 6.464 6.464 0 00-3.008 3.375c-2.993.704-6.087.57-9.016-.384l3.235-5.07c2.584.475 5.223.02 7.5-1.305a11.04 11.04 0 004.53-5.04l7.214.232c.538.054.992-.406 1.01-.947a.978.978 0 00-.947-1.012z"/></svg>