<svg xmlns="http://www.w3.org/2000/svg" version="1" viewBox="0 0 50 50"><path fill="#FFDB92" d="M6.26 29.184c.114.915.457 1.84.8 2.754.34.913.79 1.817 1.243 2.61L45.39 21.05c-.54-.082-1.088-.16-1.65-.236-.113-.915-.457-1.83-.8-2.754-.343-.923-.8-1.84-1.26-2.64 1.145-1.258 2.07-2.64 2.984-4.127-1.373-2.06-3.09-3.898-5.157-5.386-1.488.8-2.983 1.84-4.242 2.87-.81-.573-1.725-.916-2.525-1.374-.915-.343-1.84-.686-2.754-.915-.114-1.716-.343-3.44-.8-5.043C26.66.987 24.14.987 21.73 1.33c-.457 1.603-.685 3.213-.914 4.93-.916.113-1.84.456-2.755.8-.923.343-1.838.8-2.64 1.258-1.258-1.144-2.64-2.068-4.126-2.983-2.06 1.373-3.9 3.09-5.386 5.157.8 1.487 1.84 2.983 2.87 4.242-.573.81-.916 1.725-1.374 2.525-.343.914-.687 1.838-.915 2.753-1.717.114-3.442.343-5.044.8-.458 2.526-.458 5.044-.114 7.455 1.6.458 3.21.687 4.927.916z"/><path fill="#FDCF72" d="M7.404 17.26l-.03.086L33.54 7.82a14.41 14.41 0 01-.802-.418c-.915-.343-1.84-.686-2.754-.915-.114-1.716-.343-3.44-.8-5.043C26.66.986 24.14.986 21.73 1.33c-.457 1.602-.685 3.212-.914 4.928-.916.115-1.84.458-2.755.802-.923.343-1.838.8-2.64 1.258-1.258-1.144-2.64-2.068-4.126-2.983-2.06 1.373-3.9 3.09-5.386 5.157.8 1.487 1.84 2.983 2.87 4.242-.573.81-.917 1.725-1.374 2.526z"/><g fill="#031326"><path d="M49.56 21.61l-.08-.582-.563-.16c-1.43-.41-2.858-.642-4.406-.855-.17-.764-.448-1.513-.728-2.265a17.92 17.92 0 00-1.01-2.21C43.827 14.3 44.67 13 45.43 11.765l.302-.49-.32-.48C43.93 8.568 42.12 6.68 40.033 5.18l-.455-.328-.495.266a28.156 28.156 0 00-3.875 2.556c-.377-.22-.756-.406-1.127-.588-.306-.15-.608-.298-.894-.46l-.13-.062a33.72 33.72 0 00-2.222-.773c-.147-1.754-.405-3.26-.786-4.592L29.895.66l-.55-.1c-2.505-.454-5.11-.493-7.74-.12l-.577.082-.16.56c-.407 1.426-.64 2.855-.854 4.406-.795.177-1.567.467-2.265.73-.706.262-1.447.6-2.21 1.008C14.3 6.173 13 5.33 11.765 4.57l-.49-.303-.48.32C8.57 6.07 6.68 7.88 5.18 9.966l-.33.455.267.495a28.134 28.134 0 002.557 3.875c-.22.376-.406.755-.588 1.126-.15.306-.298.61-.462.895l-.06.13a33.12 33.12 0 00-.774 2.223c-1.753.147-3.26.405-4.59.786l-.538.154-.1.55c-.454 2.505-.495 5.11-.12 7.74l.082.577.56.16c1.43.408 2.856.64 4.405.854.172.78.454 1.533.728 2.266.26.703.6 1.443 1.01 2.208C6.175 35.698 5.33 37 4.57 38.236l-.3.49.318.48c1.485 2.226 3.295 4.116 5.38 5.616l.456.33.494-.267a28.247 28.247 0 003.874-2.557c.377.22.756.406 1.127.59.305.15.607.296.893.46l.13.06a33.55 33.55 0 002.223.773c.147 1.753.405 3.26.786 4.59l.154.538.55.1c1.374.25 2.776.374 4.197.374 1.17 0 2.355-.085 3.543-.254l.577-.082.16-.56c.408-1.43.64-2.856.854-4.405.78-.172 1.533-.454 2.267-.73a.9.9 0 00-.63-1.68c-.852.318-1.732.648-2.55.75l-.69.086-.09.687c-.21 1.57-.403 2.91-.737 4.233a22.41 22.41 0 01-6.024-.09c-.308-1.24-.513-2.66-.624-4.313l-.044-.653-.635-.16c-.867-.217-1.78-.555-2.59-.86a18.83 18.83 0 00-.93-.478c-.52-.255-1.013-.497-1.458-.812l-.558-.395-.53.432a27.27 27.27 0 01-3.602 2.498 19.897 19.897 0 01-4.154-4.344c.737-1.173 1.564-2.386 2.575-3.498l.44-.483-.325-.568a17.21 17.21 0 01-1.197-2.51c-.318-.85-.647-1.73-.75-2.55l-.086-.688-.686-.09c-1.57-.21-2.91-.404-4.234-.737a22.41 22.41 0 01.092-6.024c1.24-.31 2.658-.513 4.312-.623l.653-.043.16-.635c.218-.87.556-1.78.86-2.59.168-.3.323-.614.48-.932.254-.52.496-1.012.81-1.457l.395-.558-.433-.53a27.328 27.328 0 01-2.497-3.603A19.875 19.875 0 0111.32 6.41c1.17.736 2.383 1.562 3.497 2.575l.483.44.567-.325a17.568 17.568 0 012.51-1.198c.848-.318 1.725-.647 2.55-.75l.686-.086.092-.686c.21-1.572.403-2.913.736-4.234a22.46 22.46 0 016.025.09c.31 1.242.513 2.66.624 4.313l.042.654.635.16c.864.215 1.778.555 2.59.86.3.167.613.32.93.477.522.256 1.014.497 1.46.812l.557.394.53-.433a27.282 27.282 0 013.602-2.496 19.875 19.875 0 014.154 4.344c-.736 1.172-1.562 2.384-2.575 3.5l-.438.482.324.567c.504.88.907 1.723 1.212 2.544.328.883.638 1.717.738 2.516l.086.688.687.09c1.568.21 2.907.402 4.23.737.266 2.336.206 4.545-.18 6.577a.898.898 0 001.765.335c.454-2.393.495-4.997.122-7.743z"/><path d="M35.035 13.11l-1.16-1.005-.308 1.503a2.284 2.284 0 01-2.26 1.843c-1.29 0-2.302-1.014-2.303-2.347-.026-.625.22-1.21.693-1.65l1.143-1.06-1.49-.457a15.78 15.78 0 00-4.637-.695c-7.5 0-13.997 5.334-15.452 12.68l-.206 1.05 1.07.024a2.285 2.285 0 012.244 2.303c0 1.232-.925 2.22-2.15 2.297l-1.067.068.25 1.04a15.694 15.694 0 0015.314 12.057c1.47 0 2.91-.203 4.284-.6l1.142-.33-.63-1.008a2.276 2.276 0 01-.35-1.222c0-1.29 1.01-2.303 2.303-2.303.496 0 .964.15 1.354.432a.898.898 0 101.053-1.457 4.08 4.08 0 00-2.407-.772c-1.98 0-3.584 1.34-3.992 3.182l-.422.115c-2.393.436-4.935.185-7.062-.71l1.87-3.343a8.81 8.81 0 002.73.447c4.01 0 7.424-2.895 8.172-6.828l4.502.067h.01a.674.674 0 00.01-1.35l-5.697-.083-.07.604c-.42 3.56-3.396 6.243-6.927 6.243a7.38 7.38 0 01-2.778-.554l-.554-.232-3.143 5.62.63.316c1.75.88 3.852 1.366 5.922 1.366.875 0 1.76-.08 2.682-.25l.054-.014c.024.197.06.393.11.584a13.78 13.78 0 01-2.793.282 13.902 13.902 0 01-13.318-9.78c.165-.056.32-.127.474-.2l.078.245a12.47 12.47 0 005.056 6.732l.606.4 3.137-5.61-.438-.357a6.94 6.94 0 01-2.563-5.4c0-2.136.982-4.18 2.627-5.47l.48-.374-3.446-5.458-.582.428a13.7 13.7 0 00-5.03 7.108l-.096.31a3.778 3.778 0 00-.463-.176c1.622-6.034 7.148-10.323 13.477-10.323.968 0 1.93.1 2.87.295a3.822 3.822 0 00-.224.602l-.282-.056c-2.772-.553-5.97-.118-8.344 1.126l-.613.32 3.16 5.65.574-.29c.8-.4 1.772-.61 2.81-.61a6.91 6.91 0 016.852 6.093l.073.61 6.414-.19-.06-.71a13.34 13.34 0 00-3.28-7.682l-.287-.326a4.02 4.02 0 00.403-.53 13.92 13.92 0 013.89 9.662.898.898 0 001.796 0 15.7 15.7 0 00-5.43-11.895zM17.05 15.65l2.025 3.208c-1.686 1.546-2.677 3.795-2.677 6.133 0 2.32.95 4.503 2.63 6.07l-1.876 3.353a11.105 11.105 0 01-3.77-5.145 5.18 5.18 0 001.856-3.968c0-1.618-.742-3.13-2.008-4.136a12.353 12.353 0 013.82-5.514zm19.473 7.634l-3.764.112c-.753-3.843-4.13-6.67-8.093-6.67-1.007 0-1.97.17-2.823.495l-1.858-3.32c1.86-.804 4.216-1.1 6.29-.793a5.24 5.24 0 005.23 5.044c.888 0 1.747-.215 2.515-.63a12 12 0 012.503 5.764z"/></g></svg>