<svg xmlns="http://www.w3.org/2000/svg" version="1" viewBox="0 0 50 50"><path fill="#AFE55D" d="M7.42 30.684l6.235 2.269c.249.09.357.316.346.542l25.962-9.449 3.742-10.282a1.88 1.88 0 00-1.125-2.412L17.746 2.313a1.882 1.882 0 00-2.412 1.125l-1.799 4.941c-.125.342.109.692.47.744.497.073.995.196 1.486.372 3.837 1.382 5.932 5.781 4.584 9.63a7.576 7.576 0 01-11.144 3.937c-.309-.191-.713-.073-.837.268l-1.799 4.942a1.88 1.88 0 001.125 2.412z"/><path fill="#C3FF68" d="M14.371 9.124c.498.072.995.195 1.486.372 2.46.886 4.198 3.013 4.777 5.44l16.078-5.852-18.601-6.77a1.882 1.882 0 00-2.412 1.125L13.9 8.38c-.122.341.111.692.471.744z"/><path fill="#031326" d="M18.041 48.814a8.25 8.25 0 01-1.299-.102c-2.587-.41-4.82-1.919-6.127-4.138a8.57 8.57 0 01-.672-7.3 8.523 8.523 0 012.569-3.658l-5.439-1.979a2.874 2.874 0 01-1.634-1.497 2.883 2.883 0 01-.097-2.214l1.799-4.942a1.55 1.55 0 01.954-.939c.455-.158.955-.1 1.37.157.38.235.79.434 1.216.589 1.66.605 3.456.52 5.054-.236a6.516 6.516 0 003.384-3.763c1.165-3.327-.653-7.147-3.97-8.342a6.594 6.594 0 00-1.289-.323 1.6 1.6 0 01-1.151-.762 1.55 1.55 0 01-.125-1.332l1.798-4.942a2.898 2.898 0 013.71-1.73L42.927 10.4a2.874 2.874 0 011.634 1.497c.327.701.361 1.487.097 2.213l-3.742 10.281a1.013 1.013 0 11-1.904-.694l3.742-10.281a.86.86 0 00-.029-.664.859.859 0 00-.49-.449L17.399 3.265a.868.868 0 00-1.113.519l-1.612 4.429c.393.082.781.192 1.161.329 4.342 1.564 6.722 6.564 5.196 10.918a8.53 8.53 0 01-4.429 4.925 8.528 8.528 0 01-6.615.309 8.776 8.776 0 01-1.128-.505l-1.612 4.429a.862.862 0 00.029.665c.098.21.272.37.49.449l6.235 2.269c.556.203.945.691 1.017 1.275a1.58 1.58 0 01-.69 1.506 6.503 6.503 0 00-2.481 3.185 6.542 6.542 0 00.514 5.578c.999 1.696 2.711 2.85 4.698 3.165a6.511 6.511 0 006.555-3.067c.962-1.608 1.215-3.464.712-5.226a1.576 1.576 0 01.44-1.594 1.552 1.552 0 011.598-.323l3.601 1.311a1.013 1.013 0 11-.694 1.904l-2.803-1.02c.372 2.048-.013 4.146-1.116 5.988-1.535 2.571-4.364 4.131-7.311 4.131z"/></svg>