<svg xmlns="http://www.w3.org/2000/svg" id="Camada_1" x="0" y="0" version="1.1" viewBox="0 0 50 50" xml:space="preserve"><style>.st2{fill:#031326}</style><path fill="#ce87ea" d="M38.9 4.7L11.1 14.8v27.9l27.8-10.1z"/><path fill="#e097fb" d="M37.3 3.5H12.7c-.9 0-1.6.6-1.6 1.4v10.9L38.9 5.7v-.8c0-.8-.7-1.4-1.6-1.4z"/><path d="M37.3 48.8H12.7c-1.6 0-2.9-1.2-2.9-2.7V3.9c0-1.5 1.3-2.7 2.9-2.7h24.6c1.6 0 2.9 1.2 2.9 2.7v42.2c0 1.5-1.3 2.7-2.9 2.7zM12.7 3.7c-.2 0-.4.1-.4.2v42.2s.1.2.4.2h24.6c.2 0 .4-.1.4-.2V3.9s-.1-.2-.4-.2H12.7z" class="st2"/><path d="M35.1 45.3H14.9c-.9 0-1.6-.7-1.6-1.5V6.2c0-.8.7-1.5 1.6-1.5h20.2c.9 0 1.6.7 1.6 1.5v37.6c0 .8-.7 1.5-1.6 1.5zM14.9 5.2c-.6 0-1.1.4-1.1 1v37.6c0 .6.5 1 1.1 1h20.2c.6 0 1.1-.5 1.1-1V6.2c0-.6-.5-1-1.1-1H14.9z" class="st2"/><path d="M15.4 10h19.3v5.7H15.4zm0 27.6h19.3v5.7H15.4zm0-19.9h19.3v18H15.4zm11.2-10h-3.1c-.3 0-.5-.2-.5-.5s.2-.5.5-.5h3.1c.3 0 .5.2.5.5s-.3.5-.5.5z" class="st2"/></svg>