<svg xmlns="http://www.w3.org/2000/svg" id="Layer_1" x="0" y="0" version="1.1" viewBox="0 0 48 47" xml:space="preserve"><style>.st3{fill:#494949;stroke:#494949;stroke-linecap:round;stroke-linejoin:round;stroke-miterlimit:10}</style><path fill="#e589ef" d="M45.9 24.4l.4 4.1L1.6 44.8l.2-8.7.4-4.9L46.7 15l-.7 3.5z"/><path fill="#f799ff" d="M46.2 8.5l-.6 7.4L1.9 31.8v-9.3l.4-4.3 44-16z"/><path fill="none" stroke="#444" stroke-linecap="round" stroke-linejoin="round" stroke-miterlimit="10" stroke-width="2.5" d="M5.5 45.8H1.3V1.2h44.9v44.6H30.7"/><path d="M36.9 11.1v5.8l-5.1 2.9-5-2.9v-5.8l5-2.9z" class="st3"/><path fill="none" stroke="#494949" stroke-linecap="round" stroke-linejoin="round" stroke-miterlimit="10" d="M30.9 21.4v5.8l-5 2.8-5-2.8v-5.8l5-2.9zM25 11.1v5.8l-5 2.9-5-2.9v-5.8l5-2.9zm-6 10.2v5.8L14 30l-5-2.9v-5.8l5-2.9z"/><path d="M25 31.6v5.8l-5 2.9-5-2.9v-5.8l5-2.9z" class="st3"/></svg>