<svg xmlns="http://www.w3.org/2000/svg" id="Layer_1" x="0" y="0" version="1.1" viewBox="0 0 47.4 47.1" xml:space="preserve"><style>.st3{fill:#494949;stroke:#494949;stroke-linecap:round;stroke-linejoin:round}</style><path fill="#a6c1c2" d="M45.9 24.5l.4 4.1L1.6 44.8l.2-8.7.4-4.9L46.6 15l-.7 3.5v6z"/><path fill="#b9d7d9" d="M46.1 8.6l-.6 7.4L1.9 31.8v-9.3l.4-4.3 44-16-.2 6.4z"/><path fill="none" stroke="#444" stroke-linecap="round" stroke-linejoin="round" stroke-width="2.5" d="M5.4 45.8H1.3V1.3h44.9v44.6H30.7"/><path d="M36.9 11.1v5.8l-5.1 2.9-5-2.9v-5.8l5-2.9 5.1 2.9z" class="st3"/><path fill="none" stroke="#494949" stroke-linecap="round" stroke-linejoin="round" d="M30.9 21.5v5.8l-5 2.8-5-2.8v-5.8l5-2.9 5 2.9zM25 11.2V17l-5 2.9-5-2.9v-5.8l5-2.9 5 2.9zm-6 10.2v5.8L14 30l-5-2.9v-5.8l5-2.9 5 3z"/><path d="M25 31.6v5.8l-5 2.9-5-2.9v-5.8l5-2.9 5 2.9z" class="st3"/></svg>