<svg xmlns="http://www.w3.org/2000/svg" id="Camada_3" x="0" y="0" version="1.1" viewBox="0 0 50 50" xml:space="preserve"><style>.st3{fill:#444;stroke:#444;stroke-width:.5;stroke-miterlimit:10}</style><path fill="#c3ff68" d="M33.96 5.31l9.93 4.65 3.38 7.05-42.3 16.41.57-19.37 5.95-4.57 13.19-8.2z"/><path fill="#afe55d" d="M47.39 21.7l-.02.47-.03 1.55L7.5 38.04 5.95 36.3l-1.06-1.23-.5-3.08.25-3.87 42.32-16.26-.52.2 1.22 3.66z"/><path fill="none" stroke="#444" stroke-linecap="round" stroke-linejoin="round" stroke-miterlimit="10" stroke-width="2.5" d="M31.11 46.57l-2.2 1.27c-1.69.98-3.78.98-5.47 0L7.86 38.85a5.48 5.48 0 01-2.74-4.74V16.13a5.46 5.46 0 012.74-4.74L23.43 2.4c1.69-.98 3.78-.98 5.47 0l15.57 8.99a5.48 5.48 0 012.74 4.74v17.98a5.46 5.46 0 01-2.74 4.74l-2.46 1.42"/><path d="M36.04 19.14c1.31-4.77.98-8.37-1.15-9.52-1.64-.98-4.1-.17-7.06 2.13-.67.5-1.31 1.15-1.81 1.64-.67-.67-1.31-1.15-1.81-1.64-2.79-2.29-5.41-3.12-7.06-2.13-2.13 1.15-2.46 4.92-1.15 9.52-4.77 1.31-7.71 3.44-7.71 5.75 0 2.46 2.96 4.6 7.71 5.75-.17.81-.5 1.64-.5 2.46-.67 3.6 0 6.23 1.64 7.06.5.33.98.5 1.64.5 1.48 0 3.29-.81 5.41-2.46.67-.5 1.31-1.15 1.81-1.64.67.67 1.31 1.15 1.81 1.64 1.98 1.64 3.94 2.46 5.41 2.46.67 0 1.15-.17 1.64-.5 1.64-.98 2.29-3.44 1.64-7.06-.17-.81-.33-1.64-.5-2.46 4.77-1.31 7.71-3.44 7.71-5.75.04-2.48-2.92-4.61-7.67-5.75zm-7.72-7.06c1.98-1.48 3.6-2.29 4.92-2.29.5 0 .98.17 1.31.33 1.81.98 1.98 4.43.81 8.87-1.64-.33-3.44-.67-5.41-.81-1.15-1.64-2.29-2.96-3.44-4.27.66-.68 1.16-1.35 1.81-1.83zm3.12 15.91c-.67.98-1.31 2.13-1.98 2.96-1.15.17-2.29.17-3.6.17-1.15 0-2.46 0-3.6-.17-.67-.98-1.31-1.98-1.98-2.96-.67-.98-1.15-2.13-1.64-3.12.5-.98.98-2.13 1.64-3.12.67-.98 1.31-2.13 1.98-2.96 1.15-.17 2.29-.17 3.6-.17s2.46 0 3.6.17c.67.98 1.31 1.98 1.98 2.96.67.98 1.15 2.13 1.64 3.12-.5 1-.98 2.14-1.64 3.12zm2.12-2.29c.67 1.48 1.31 2.96 1.64 4.43-1.48.33-2.96.67-4.77.81.5-.81 1.15-1.64 1.64-2.62.51-.81 1.01-1.81 1.49-2.62zm-7.54 9.85c-.98-1.15-2.13-2.29-3.12-3.77.98 0 1.98.17 3.12.17 1.15 0 2.13 0 3.12-.17-.99 1.29-2.14 2.62-3.12 3.77zm-4.43-4.6c-1.64-.17-3.29-.5-4.77-.81.5-1.48.98-2.96 1.64-4.43.5.81.98 1.81 1.48 2.62.5.97 1 1.8 1.65 2.62zm-3.1-6.9c-.67-1.48-1.31-3.12-1.64-4.43 1.48-.33 2.96-.67 4.77-.81-.5.81-1.15 1.64-1.64 2.62-.52.98-1.01 1.81-1.49 2.62zm7.53-9.84c.98 1.15 2.13 2.29 3.12 3.77-1 .02-1.98-.15-3.12-.15-1.15 0-2.13 0-3.12.17 1-1.34 2.15-2.65 3.12-3.79zm6.08 7.22c-.5-.81-.98-1.81-1.64-2.62 1.64.17 3.29.5 4.77.81-.5 1.48-.98 2.96-1.64 4.43-.51-.81-1.01-1.81-1.49-2.62zM17.49 10.1c1.31-.81 3.6 0 6.23 1.98.67.5 1.15.98 1.81 1.64-1.15 1.31-2.29 2.62-3.44 4.27-1.98.17-3.77.5-5.41.81-1.15-4.26-.98-7.7.81-8.7zM8.95 24.87c0-2.13 2.96-3.94 7.23-5.08.5 1.64 1.15 3.29 1.98 5.08-.81 1.81-1.48 3.44-1.98 5.08-4.27-1.13-7.23-2.94-7.23-5.08zm14.78 12.8c-2.62 2.13-4.92 2.79-6.23 1.98s-1.81-3.12-1.31-6.39c.17-.81.33-1.64.5-2.46 1.64.33 3.44.67 5.41.81 1.15 1.64 2.29 2.96 3.44 4.27-.66.65-1.16 1.29-1.81 1.79zm12.14-4.43c.5 3.29 0 5.58-1.31 6.39-1.31.81-3.6 0-6.23-1.98-.67-.5-1.15-.98-1.81-1.64 1.15-1.31 2.29-2.62 3.44-4.27 1.98-.17 3.77-.5 5.41-.81.17.68.5 1.49.5 2.31zm0-3.27c-.5-1.64-1.15-3.44-1.98-5.08.81-1.81 1.48-3.44 1.98-5.08 4.27 1.15 7.23 2.96 7.23 5.08s-2.96 3.93-7.23 5.08z" class="st3"/><circle cx="25.53" cy="24.92" r="2.88" class="st3"/></svg>