<svg xmlns="http://www.w3.org/2000/svg" version="1" viewBox="0 0 50 50"><path fill="#71BAC0" d="M5.562 37.081l6.107 3.421L45.5 28.189V14.732c0-.752-.406-1.446-1.062-1.813L26.016 2.598a2.077 2.077 0 00-2.032 0L5.562 12.919A2.079 2.079 0 004.5 14.732v20.536c0 .752.406 1.446 1.062 1.813z"/><path fill="#7ED0D6" d="M37.036 8.772l-11.02-6.174a2.077 2.077 0 00-2.032 0L5.562 12.919A2.079 2.079 0 004.5 14.732v5.883L37.036 8.772z"/><path fill="#031326" d="M45.049 11.829L26.627 1.507a3.349 3.349 0 00-3.253 0L4.952 11.829a3.33 3.33 0 00-1.702 2.903v20.536a3.33 3.33 0 001.702 2.904l18.422 10.321c.501.281 1.064.421 1.626.421s1.125-.14 1.627-.421l11.021-6.174a1.251 1.251 0 00-1.223-2.181L25.746 46.12V25.443l7.625-4.275v8.669a.52.52 0 00.781.451l5.1-2.951a.52.52 0 00.26-.451v-9.16l4.737-2.656v13.123a1.25 1.25 0 002.5 0V14.732a3.328 3.328 0 00-1.7-2.903zM24.595 3.688c.25-.14.56-.14.81 0l18.045 10.11-4.724 2.648-17.412-10.92 3.281-1.838zM6.173 35.99a.829.829 0 01-.423-.723V15.068l18.496 10.375v20.673L6.173 35.99zm18.823-11.846L6.551 13.798l8.548-4.789 17.476 10.886-7.579 4.249z"/></svg>