<svg xmlns="http://www.w3.org/2000/svg" version="1" viewBox="0 0 50 50"><path fill="#A6C1C2" d="M5.013 45.337L46.75 30.146V8.615a5.365 5.365 0 00-5.365-5.365H8.615A5.365 5.365 0 003.25 8.615v32.771c0 1.57.687 2.97 1.763 3.951z"/><path fill="#B9D7D9" d="M44.985 4.661a5.326 5.326 0 00-3.599-1.411H8.615A5.365 5.365 0 003.25 8.615v11.237L44.985 4.661z"/><path fill="#031326" d="M25.001 48H8.615A6.622 6.622 0 012 41.386V8.615A6.622 6.622 0 018.615 2h32.771A6.622 6.622 0 0148 8.615v21.529a1.25 1.25 0 01-2.5 0V8.615A4.12 4.12 0 0041.386 4.5H8.615A4.12 4.12 0 004.5 8.615v32.771A4.119 4.119 0 008.615 45.5h16.386a1.25 1.25 0 010 2.5z"/><path fill="#031326" d="M41.369 43.526H8.631a2.16 2.16 0 01-2.157-2.157V8.631a2.16 2.16 0 012.157-2.157h32.738a2.16 2.16 0 012.157 2.157v32.738c0 1.19-.967 2.157-2.157 2.157zM8.631 7.224c-.776 0-1.407.631-1.407 1.407v32.738c0 .776.631 1.407 1.407 1.407h32.738c.776 0 1.407-.631 1.407-1.407V8.631c0-.776-.631-1.407-1.407-1.407H8.631z"/><path fill="#031326" d="M25.002 24.469a4.59 4.59 0 004.579-4.392v-.234c0-2.522-2.069-4.575-4.612-4.575-2.521 0-4.573 2.02-4.605 4.515h3.598a.32.32 0 010 .638h-4.639a4.619 4.619 0 00-4.102 4.596c0 2.371 1.826 4.325 4.155 4.552a5.66 5.66 0 015.626-5.1zm-1.151-6.013a.823.823 0 110-1.646.823.823 0 010 1.646z"/><path fill="#031326" d="M30.626 20.398a5.656 5.656 0 01-5.624 5.133 4.592 4.592 0 00-4.582 4.392v.199a4.615 4.615 0 004.612 4.608 4.612 4.612 0 004.604-4.515h-3.597a.32.32 0 010-.638h4.395a4.61 4.61 0 004.346-4.596 4.614 4.614 0 00-4.154-4.583zm-4.477 11.146a.822.822 0 110 1.644.822.822 0 010-1.644z"/></svg>