<svg xmlns="http://www.w3.org/2000/svg" version="1" viewBox="0 0 50 50"><path fill="#E56060" d="M7.253 37.788l5.451 3.147L44.948 29.2V16.025a4.402 4.402 0 00-2.201-3.812L27.201 3.237a4.404 4.404 0 00-4.402 0L7.253 12.212a4.402 4.402 0 00-2.201 3.812v17.951c0 1.573.839 3.026 2.201 3.813z"/><path fill="#FF6B6B" d="M35.55 8.058l-8.349-4.821a4.404 4.404 0 00-4.402 0L7.254 12.212a4.402 4.402 0 00-2.201 3.812v3.134l30.497-11.1z"/><path fill="#031326" d="M25 48.53a5.578 5.578 0 01-2.791-.745L6.664 38.81a5.6 5.6 0 01-2.791-4.835v-17.95a5.6 5.6 0 012.791-4.835l15.545-8.975a5.6 5.6 0 015.583 0l15.545 8.975a5.598 5.598 0 012.791 4.835V29.2a1.18 1.18 0 11-2.36 0V16.025a3.23 3.23 0 00-1.611-2.79L26.611 4.26a3.232 3.232 0 00-3.222 0L7.844 13.234a3.23 3.23 0 00-1.611 2.79v17.95c0 1.148.617 2.217 1.611 2.79l15.545 8.975a3.227 3.227 0 003.222 0l4.293-2.478a1.18 1.18 0 011.18 2.045l-4.293 2.478A5.57 5.57 0 0125 48.53z"/><g fill="#031326"><path d="M25.002 24.404a5.151 5.151 0 005.138-4.928v-.262c0-2.83-2.322-5.133-5.175-5.133-2.829 0-5.131 2.267-5.168 5.067h4.038a.358.358 0 010 .716h-5.206a5.182 5.182 0 00-4.603 5.157c0 2.66 2.049 4.853 4.663 5.108a6.351 6.351 0 016.313-5.725zm-1.291-6.747a.923.923 0 110-1.845.923.923 0 010 1.845z"/><path d="M31.314 19.835c-.294 3.225-3.011 5.76-6.311 5.76a5.152 5.152 0 00-5.141 4.929v.224a5.18 5.18 0 005.175 5.171 5.174 5.174 0 005.166-5.067h-4.036a.358.358 0 010-.716h4.931a5.174 5.174 0 004.877-5.157 5.18 5.18 0 00-4.661-5.144zM26.29 32.343a.923.923 0 110 1.845.923.923 0 010-1.845z"/></g></svg>