<svg xmlns="http://www.w3.org/2000/svg" version="1" viewBox="0 0 50 50"><path fill="#AFE55D" d="M47.919 26.515c0 .308-.008.607-.025.906L8.04 41.927a22.806 22.806 0 01-5.963-15.412h6.646c.008-5.843 2.529-10.602 8.065-14.062l-3.323-5.749a22.757 22.757 0 0111.533-3.118c4.143 0 8.03 1.102 11.388 3.033l-3.323 5.749c5.237 2.981 8.21 8.022 8.218 14.147h6.638z"/><path fill="#C3FF68" d="M36.386 6.619l-3.152 5.459-23.493 8.543c1.205-3.212 3.511-5.954 7.048-8.167l-3.323-5.749a22.757 22.757 0 0111.533-3.118 22.75 22.75 0 0111.387 3.032z"/><g fill="#031326"><path d="M47.923 25.262l-5.434.001c-.353-5.594-3.058-10.255-7.734-13.324l2.714-4.699a1.251 1.251 0 00-.461-1.709A24.163 24.163 0 0025 2.339a24.1 24.1 0 00-12.169 3.287 1.25 1.25 0 00-.451 1.704l2.733 4.734c-4.708 3.284-7.258 7.715-7.597 13.199H2.077c-.69 0-1.25.56-1.25 1.25 0 8.568 4.601 16.574 12.006 20.894a1.246 1.246 0 001.712-.455l2.731-4.734c4.932 2.302 10.059 2.322 15.274.055l2.752 4.769a1.25 1.25 0 001.705.46 24.464 24.464 0 007.533-6.752 1.249 1.249 0 10-2.019-1.473 21.96 21.96 0 01-5.694 5.403l-2.683-4.646c-.148-.257-.394-.693-.394-.693a15.669 15.669 0 006.733-11.575h.795l6.645-.002a1.25 1.25 0 000-2.502zM34.658 7.108l-2.678 4.637c-.137.238-.391.659-.391.659a15.508 15.508 0 00-13.349.08l-.374-.651-2.683-4.646c5.983-3.048 13.444-3.085 19.475-.079zM15.702 39.945l-2.676 4.637a21.787 21.787 0 01-9.663-16.82h5.364l.79.001a15.745 15.745 0 006.585 11.479c.001 0-.249.441-.4.703zm16.792-.403c-5.262 2.59-10.201 2.568-15.102-.066-4.549-2.684-7.384-7.618-7.427-12.905v-.074c.008-5.613 2.463-9.848 7.481-12.979.046-.029.351-.24.471-.305a14.987 14.987 0 017.082-1.781c2.435 0 4.828.597 6.969 1.723.117.061.426.272.476.3 4.886 2.783 7.579 7.42 7.583 13.059 0 .013.007.024.007.037a15.149 15.149 0 01-7.54 12.991z"/><path d="M25.001 25.695a4.39 4.39 0 004.379-4.2v-.223c0-2.412-1.979-4.375-4.41-4.375-2.411 0-4.373 1.932-4.404 4.318h3.441a.306.306 0 010 .61H19.57a4.417 4.417 0 00-3.923 4.395c0 2.267 1.746 4.136 3.974 4.353a5.411 5.411 0 015.38-4.878zm-1.101-5.75a.787.787 0 110-1.574.787.787 0 010 1.574z"/><path d="M30.379 21.802A5.41 5.41 0 0125 26.711a4.392 4.392 0 00-4.382 4.201v.191a4.414 4.414 0 004.41 4.407 4.41 4.41 0 004.403-4.318h-3.44a.305.305 0 110-.61h4.203a4.409 4.409 0 004.156-4.395 4.41 4.41 0 00-3.971-4.385zm-4.281 10.659a.787.787 0 110 1.574.787.787 0 010-1.574z"/></g></svg>