<svg xmlns="http://www.w3.org/2000/svg" id="Layer_1" x="0" y="0" version="1.1" viewBox="0 0 50 50" xml:space="preserve"><style>.st3{fill:none;stroke:#444;stroke-miterlimit:10}</style><path fill="#46b8b0" d="M47.8 24.2v4.3L1.7 45l-.4-12.7-.1-4 46.6-17z"/><path fill="#4ecdc4" d="M48.2 8.7v3.6L1.8 29.2l.2-7.3v-4L48.3 3.1z"/><path fill="none" stroke="#444" stroke-linecap="round" stroke-linejoin="round" stroke-miterlimit="10" stroke-width="2.5" d="M30.3 48H1.7V1.9h46.4V48h-4.9"/><path d="M15.4 18.6c-3.9 1.1-6.5 2.8-6.5 4.8s2.5 3.7 6.5 4.8c.5-1.5 1.1-3.1 1.9-4.8-.8-1.6-1.4-3.2-1.9-4.8zm25.5 4.8c0-2.2-3.2-4.2-8.1-5.2-.5 1.7-1.1 3.5-2 5.3.8 1.8 1.6 3.5 2 5.1 4.9-1 8.1-2.9 8.1-5.2zm-8-5.2c1.1-4.1.9-7.3-.8-8.3-1.8-1-4.8.4-7.8 3.5 1.1 1.2 2.2 2.5 3.2 4 1.9.2 3.7.5 5.4.8z" class="st3"/><path d="M29.2 20.3c.6 1.1 1.2 2.2 1.7 3.2.9-1.9 1.6-3.7 2-5.3-1.6-.4-3.5-.6-5.4-.7.5.9 1.1 1.8 1.7 2.8zm-10.4 6c-.5-.9-1-1.9-1.5-2.8-.8 1.7-1.2 3.3-1.6 4.8 1.6.4 3.1.7 5 .9-.7-1-1.3-1.9-1.9-2.9zm5.4-12.8C21 10.1 17.9 8.4 16 9.4c-1.9 1.1-2 4.7-.6 9.2 1.6-.4 3.4-.8 5.4-1 1.1-1.5 2.3-2.9 3.4-4.1z" class="st3"/><path d="M18.8 20.7c.6-1.1 1.3-2.1 2-3.1-2 .2-3.8.5-5.4 1 .5 1.5 1.1 3.2 1.9 4.9.5-.9 1-1.8 1.5-2.8zm10.4 6.1c-.5.9-1 1.7-1.5 2.5 1.9-.1 3.6-.4 5.2-.7-.5-1.6-1.1-3.2-1.9-5-.6 1-1.2 2.1-1.8 3.2zm-8.4-9.1c1.3-.1 2.7-.2 4.1-.2.9 0 1.7 0 2.5.1-1-1.5-2.1-2.9-3.2-4-1.1 1.1-2.3 2.5-3.4 4.1z" class="st3"/><path d="M27.4 17.5c-.8 0-1.7-.1-2.5-.1-1.4 0-2.8.1-4.1.2-.7 1-1.3 2-2 3.1-.5.9-1 1.8-1.5 2.8.4.9.9 1.9 1.5 2.8.6 1 1.1 2.1 1.8 2.9 1.4.2 2.8.2 4.3.2.9 0 1.8 0 2.6-.1.6-.8 1.1-1.7 1.6-2.6.6-1.1 1.2-2.2 1.7-3.2-.5-1.1-1-2.1-1.7-3.2-.5-1-1.1-1.9-1.7-2.8z" class="st3"/><circle cx="24.3" cy="23.6" r="2.2" fill="#444" stroke="#444" stroke-miterlimit="10"/><circle cx="18.2" cy="31.4" r="2.2" class="st3"/><circle cx="30.4" cy="31.4" r="2.2" class="st3"/><circle cx="14.3" cy="38.9" r="2.2" class="st3"/><circle cx="22.4" cy="38.9" r="2.2" class="st3"/><circle cx="30.4" cy="38.9" r="2.2" class="st3"/><path d="M22.7 25l-3.2 4.4m6.4-4.4l3.2 4.4m-12 4.1l-1.9 3.8m4.1-3.8l1.9 3.8m9.2-3.7v3.1" class="st3"/></svg>