<svg xmlns="http://www.w3.org/2000/svg" fill="none" viewBox="0 0 50 40"><path fill="#A475EF" d="M44.75 14.68l.38 4.11L.88 34.89l3.84-7.53v-7.34l40.7-14.81-.67 3.54v5.93z"/><path fill="#BF94F7" d="M44.42 3.3l-.21 2.87L4.84 20.5l-.12-9.41.98-8.6 38.21-1.05.51 1.86z"/><path fill="#444" stroke="#444" stroke-miterlimit="10" stroke-width=".5" d="M30.42 11.71c.71-2.58.53-4.53-.62-5.15-.89-.53-2.22-.09-3.82 1.15-.36.27-.71.62-.98.89-.36-.36-.71-.62-.98-.89-1.51-1.24-2.93-1.69-3.82-1.15-1.15.62-1.33 2.66-.62 5.15-2.58.71-4.17 1.86-4.17 3.11 0 1.33 1.6 2.49 4.17 3.11-.09.44-.27.89-.27 1.33-.36 1.95 0 3.37.89 3.82.27.18.53.27.89.27.8 0 1.78-.44 2.93-1.33.36-.27.71-.62.98-.89.36.36.71.62.98.89 1.07.89 2.13 1.33 2.93 1.33.36 0 .62-.09.89-.27.89-.53 1.24-1.86.89-3.82l-.27-1.33c2.58-.71 4.17-1.86 4.17-3.11 0-1.34-1.6-2.49-4.17-3.11zm-4.18-3.82c1.07-.8 1.95-1.24 2.66-1.24.27 0 .53.09.71.18.98.53 1.07 2.4.44 4.8-.89-.18-1.86-.36-2.93-.44-.62-.89-1.24-1.6-1.86-2.31.36-.37.63-.73.98-.99zm1.69 8.61c-.36.53-.71 1.15-1.07 1.6-.62.09-1.24.09-1.95.09-.62 0-1.33 0-1.95-.09-.36-.53-.71-1.07-1.07-1.6-.36-.53-.62-1.15-.89-1.69.27-.53.53-1.15.89-1.69.36-.53.71-1.15 1.07-1.6.62-.09 1.24-.09 1.95-.09s1.33 0 1.95.09c.36.53.71 1.07 1.07 1.6.36.53.62 1.15.89 1.69-.27.54-.53 1.16-.89 1.69zm1.15-1.24c.36.8.71 1.6.89 2.4-.8.18-1.6.36-2.58.44.27-.44.62-.89.89-1.42.27-.44.54-.98.8-1.42zM25 20.59c-.53-.62-1.15-1.24-1.69-2.04.53 0 1.07.09 1.69.09.62 0 1.15 0 1.69-.09-.54.7-1.16 1.42-1.69 2.04zm-2.4-2.49c-.89-.09-1.78-.27-2.58-.44.27-.8.53-1.6.89-2.4.27.44.53.98.8 1.42.27.53.54.98.89 1.42zm-1.68-3.73c-.36-.8-.71-1.69-.89-2.4.8-.18 1.6-.36 2.58-.44-.27.44-.62.89-.89 1.42-.27.53-.54.98-.8 1.42zM25 9.04c.53.62 1.15 1.24 1.69 2.04-.54.01-1.07-.08-1.69-.08-.62 0-1.15 0-1.69.09.54-.72 1.16-1.43 1.69-2.05zm3.29 3.91c-.27-.44-.53-.98-.89-1.42.89.09 1.78.27 2.58.44-.27.8-.53 1.6-.89 2.4-.27-.44-.54-.98-.8-1.42zm-7.91-6.13c.71-.44 1.95 0 3.37 1.07.36.27.62.53.98.89-.62.71-1.24 1.42-1.86 2.31-1.07.09-2.04.27-2.93.44-.62-2.31-.53-4.17.44-4.71zm-4.62 7.99c0-1.15 1.6-2.13 3.91-2.75.27.89.62 1.78 1.07 2.75-.44.98-.8 1.86-1.07 2.75-2.31-.61-3.91-1.59-3.91-2.75zm8 6.93c-1.42 1.15-2.66 1.51-3.37 1.07-.71-.44-.98-1.69-.71-3.46l.27-1.33c.89.18 1.86.36 2.93.44.62.89 1.24 1.6 1.86 2.31-.36.35-.63.7-.98.97zm6.57-2.4c.27 1.78 0 3.02-.71 3.46-.71.44-1.95 0-3.37-1.07-.36-.27-.62-.53-.98-.89.62-.71 1.24-1.42 1.86-2.31 1.07-.09 2.04-.27 2.93-.44.09.37.27.81.27 1.25zm0-1.77c-.27-.89-.62-1.86-1.07-2.75.44-.98.8-1.86 1.07-2.75 2.31.62 3.91 1.6 3.91 2.75s-1.6 2.13-3.91 2.75z"/><path fill="#444" stroke="#444" stroke-miterlimit="10" stroke-width=".5" d="M24.73 16.4a1.56 1.56 0 100-3.12 1.56 1.56 0 000 3.12z"/><path fill="#444" d="M36.57 24.17h.46c.02 0 .04-.02.04-.04v-.19c0-.02.02-.04.04-.04h.19c.02 0 .04-.02.04-.04v-.46c0-.02-.02-.04-.04-.04h-.19c-.02 0-.04-.02-.04-.04v-.46c0-.02-.02-.04-.04-.04h-.19c-.02 0-.04-.02-.04-.04v-.47c0-.02-.02-.04-.04-.04h-.19c-.02 0-.04-.02-.04-.04v-.46c0-.02.02-.04.04-.04h1.01c.02 0 .04-.02.04-.04v-.19c0-.02-.02-.04-.04-.04h-.19c-.02 0-.04-.02-.04-.04v-.19c0-.02-.02-.04-.04-.04h-.19c-.02 0-.04-.02-.04-.04v-.19c0-.02-.02-.04-.04-.04h-.19c-.02 0-.04-.02-.04-.04v-.2c0-.02-.02-.04-.04-.04h-.19c-.02 0-.04-.02-.04-.04v-.19c0-.02-.02-.04-.04-.04h-.2c-.02 0-.04-.02-.04-.04v-.19c0-.02-.02-.04-.04-.04h-.19c-.02 0-.04-.02-.04-.04v-.19c0-.02-.02-.04-.04-.04h-.19c-.02 0-.04-.02-.04-.04v-.19c0-.02-.02-.04-.04-.04h-.19c-.02 0-.04-.02-.04-.04v-.19c0-.02-.02-.04-.04-.04h-.19c-.02 0-.04-.02-.04-.04v-.2c0-.02-.02-.04-.04-.04h-.19c-.02 0-.04-.02-.04-.04v-.19c0-.02-.02-.04-.04-.04h-.19c-.02 0-.04-.02-.04-.04v-.19c0-.02-.02-.04-.04-.04h-.2c-.02 0-.04.02-.04.04v4.54c0 .02.02.04.04.04h.19c.02 0 .04-.02.04-.04v-.19c0-.02.02-.04.04-.04h.19c.02 0 .04-.02.04-.04v-.19c0-.02.02-.04.04-.04h.19c.02 0 .04-.02.04-.04v-.2c0-.02.02-.04.04-.04h.46c.02 0 .04.02.04.04v.47c0 .02.02.04.04.04h.19c.02 0 .04.02.04.04v.46c0 .02.02.04.04.04h.19c.02 0 .04.02.04.04v.46c0 .02.02.04.04.04h.19c.02 0 .04.02.04.04v.19c.01.03.03.04.05.04zm8.81 10.22H31.16l-.75-2.72c-.15-.55-.66-.94-1.23-.94h-8.99c-.57 0-1.08.39-1.23.94l-.75 2.72H4.6l-.46 1.36h41.72l-.48-1.36zm-25.76 0l.63-2.3h8.87l.63 2.3H19.62z"/><path fill="#444" stroke="#444" stroke-miterlimit="10" d="M49.14 35.1v-.02c0-.03-.01-.06-.01-.08v-.01c-.01-.02-.01-.05-.02-.07 0-.01 0-.01-.01-.02l-.03-.06v-.01l-3.78-7.46V2.81c0-.76-.61-1.37-1.37-1.37H6.08c-.76 0-1.37.61-1.37 1.37v24.55L.93 34.82v.01l-.03.06c0 .01 0 .01-.01.02-.01.02-.02.05-.02.07v.01c-.01.03-.01.05-.01.08v1.85c0 .9.73 1.63 1.63 1.63h45.04c.9 0 1.63-.73 1.63-1.63v-1.79c-.02-.01-.02-.02-.02-.03zM6.13 2.85h37.74v23.97H6.13V2.85zm41.6 34.08c0 .12-.09.21-.21.21H2.48c-.12 0-.21-.1-.21-.21v-1.09l.52-1.57 3.06-6.04h38.29l3.14 6.2c.44 1.41-.03-.12 0 0l.44 1.41s-.44-1.41 0 0v1.09h.01z"/><path fill="#444" d="M8.82 6.65a.89.89 0 100-1.78.89.89 0 000 1.78zm2.9 0a.89.89 0 100-1.78.89.89 0 000 1.78zm2.91 0a.89.89 0 100-1.78.89.89 0 000 1.78z"/></svg>